<svg data-v-423bf9ae="" xmlns="http://www.w3.org/2000/svg" viewBox="0 0 418.6653355808319 163" class="iconAbove"><!----><!----><!----><g data-v-423bf9ae="" id="7dc9bf6f-28f5-4b51-bfa5-311822b5a702" fill="#9747FF" transform="matrix(5.802707672119141,0,0,5.802707672119141,-2.785301685333252,82.1102523803711)"><path d="M1.48 3.79L0.48 3.79L0.48 4.38C0.48 4.52 0.55 4.62 0.69 4.65C0.77 4.68 1.04 4.73 1.48 4.82L1.48 12.81L0.69 12.96C0.55 12.99 0.48 13.09 0.48 13.23L0.48 13.82L3.86 13.82L3.86 13.23C3.86 13.09 3.78 12.99 3.64 12.96C3.22 12.88 2.97 12.84 2.86 12.81L2.86 9.51L6.66 9.51L6.66 8.41L2.86 8.41L2.86 4.90L6.83 4.90C6.89 5.57 6.94 5.94 6.94 5.98C6.97 6.15 7.06 6.22 7.22 6.22L7.91 6.22L7.91 3.79ZM14.78 12.95C14.70 12.92 14.28 12.84 14.08 12.80L14.08 9.25C14.08 8.86 14.04 8.50 13.93 8.16C13.82 7.83 13.66 7.55 13.45 7.32C13.24 7.10 12.99 6.93 12.68 6.79C12.38 6.65 12.01 6.59 11.62 6.59C11.06 6.59 10.56 6.68 10.11 6.87C9.66 7.07 9.24 7.34 8.85 7.71L9.07 8.11C9.10 8.16 9.16 8.23 9.21 8.27C9.27 8.32 9.35 8.33 9.44 8.33C9.55 8.33 9.65 8.30 9.76 8.22C9.87 8.13 10.01 8.06 10.16 7.97C10.32 7.87 10.49 7.80 10.70 7.71C10.91 7.63 11.16 7.59 11.47 7.59C11.93 7.59 12.28 7.74 12.52 8.02C12.75 8.30 12.88 8.72 12.88 9.28L12.88 9.83C12.07 9.83 11.40 9.88 10.84 10.01C10.28 10.14 9.83 10.32 9.49 10.51C9.16 10.71 8.89 10.96 8.74 11.21C8.58 11.47 8.51 11.75 8.51 12.03C8.51 12.35 8.55 12.63 8.67 12.87C8.78 13.10 8.92 13.30 9.09 13.45C9.25 13.61 9.48 13.71 9.72 13.79C9.95 13.87 10.19 13.92 10.47 13.92C10.75 13.92 11.00 13.90 11.23 13.85C11.45 13.79 11.65 13.72 11.84 13.64C12.04 13.55 12.24 13.44 12.40 13.30C12.57 13.16 12.77 13.01 12.96 12.84L13.10 13.51C13.13 13.62 13.16 13.71 13.24 13.73C13.33 13.76 13.43 13.79 13.54 13.79L13.99 13.79L14.08 13.79L14.99 13.79L14.99 13.19C14.99 13.06 14.91 12.95 14.78 12.92ZM12.85 12.08C12.71 12.22 12.57 12.36 12.43 12.47C12.29 12.59 12.14 12.70 11.97 12.78C11.80 12.87 11.63 12.92 11.45 12.96C11.27 13.01 11.09 13.03 10.86 13.03C10.70 13.03 10.54 13.01 10.40 12.96C10.26 12.92 10.15 12.87 10.04 12.78C9.93 12.70 9.84 12.59 9.79 12.45C9.73 12.31 9.69 12.17 9.69 11.97C9.69 11.77 9.74 11.61 9.86 11.44C9.97 11.27 10.16 11.13 10.42 11.02C10.67 10.91 11.00 10.79 11.40 10.72C11.79 10.65 12.28 10.63 12.85 10.63ZM18.02 8.18L17.93 7.07C17.91 6.94 17.88 6.86 17.82 6.80C17.77 6.75 17.70 6.73 17.56 6.73L16.84 6.73L15.83 6.73L15.83 7.32C15.83 7.46 15.90 7.56 16.04 7.59C16.13 7.62 16.39 7.67 16.84 7.76L16.84 12.81L16.04 12.96C15.90 12.99 15.83 13.09 15.83 13.23L15.83 13.82L19.10 13.82L19.10 13.23C19.10 13.09 19.03 12.99 18.89 12.96C18.47 12.88 18.20 12.84 18.09 12.81L18.09 9.31C18.48 8.33 19.10 7.83 19.91 7.83C20.16 7.83 20.34 7.85 20.48 7.90C20.62 7.94 20.73 7.97 20.82 7.97C20.90 7.97 20.97 7.90 21 7.78L21.15 6.85C20.87 6.68 20.55 6.59 20.19 6.59C19.26 6.59 18.55 7.13 18.03 8.18ZM24.05 7.71L23.95 6.99C23.90 6.82 23.79 6.73 23.62 6.73L22.89 6.73L21.88 6.73L21.88 7.32C21.88 7.46 21.94 7.56 22.08 7.59C22.16 7.62 22.44 7.67 22.89 7.76L22.89 12.81L22.08 12.96C21.94 12.99 21.88 13.09 21.88 13.23L21.88 13.82L25.14 13.82L25.14 13.23C25.14 13.09 25.07 12.99 24.93 12.96C24.91 12.96 24.77 12.94 24.51 12.88L24.14 12.81L24.14 8.55C24.61 7.94 25.13 7.63 25.72 7.63C26.61 7.63 27.06 8.19 27.06 9.31L27.06 13.83L29.32 13.83L29.32 13.23C29.32 13.09 29.25 13.01 29.11 12.98C28.66 12.89 28.39 12.82 28.31 12.81L28.31 9.31C28.31 8.78 28.46 8.36 28.77 8.05C29.05 7.77 29.41 7.63 29.83 7.63C30.30 7.63 30.65 7.78 30.90 8.06C31.15 8.34 31.26 8.76 31.26 9.32L31.26 13.85L33.52 13.85L33.52 13.23C33.52 13.09 33.45 13.01 33.31 12.98C33.22 12.95 32.94 12.89 32.49 12.81L32.49 9.31C32.49 8.46 32.30 7.80 31.88 7.32C31.68 7.10 31.42 6.92 31.12 6.80C30.83 6.69 30.46 6.62 30.03 6.62C29.60 6.62 29.19 6.76 28.80 6.99C28.36 7.24 28.07 7.62 27.87 8.11C27.73 7.66 27.52 7.29 27.23 7.03C26.94 6.76 26.53 6.62 26.05 6.62C25.31 6.62 24.64 7.00 24.05 7.73ZM43.92 8.81C43.92 7.31 43.46 6.09 42.55 5.17C41.65 4.24 40.46 3.79 38.98 3.79L34.34 3.79L34.34 4.38C34.34 4.52 34.43 4.62 34.57 4.65C34.65 4.68 34.90 4.73 35.35 4.82L35.35 12.81L34.57 12.96C34.43 12.99 34.34 13.09 34.34 13.23L34.34 13.82L38.98 13.82C40.46 13.82 41.64 13.37 42.55 12.45C42.98 12.00 43.32 11.48 43.55 10.86C43.79 10.25 43.92 9.56 43.92 8.81ZM42.52 8.81C42.52 10.04 42.21 10.99 41.57 11.69C40.92 12.39 40.07 12.73 38.98 12.73L36.72 12.73L36.72 4.89L38.98 4.89C40.07 4.89 40.94 5.22 41.57 5.92C41.87 6.26 42.10 6.68 42.27 7.15C42.43 7.63 42.52 8.19 42.52 8.81ZM48.22 12.94C47.71 12.94 47.35 12.80 47.10 12.50C46.84 12.21 46.73 11.77 46.73 11.24L46.73 6.73L44.46 6.73L44.46 7.32C44.46 7.46 44.55 7.56 44.69 7.59C44.77 7.62 45.02 7.67 45.47 7.76L45.47 11.26C45.47 12.10 45.70 12.73 46.09 13.20C46.51 13.69 47.10 13.94 47.85 13.94C48.75 13.94 49.53 13.57 50.20 12.81L50.30 13.57C50.36 13.73 50.47 13.83 50.64 13.83L52.39 13.83L52.39 13.23C52.39 13.09 52.32 13.01 52.18 12.98C52.09 12.95 51.83 12.89 51.38 12.81L51.38 6.73L50.13 6.73L49.13 6.73L49.13 7.34C49.13 7.48 49.20 7.57 49.34 7.60C49.78 7.69 50.05 7.74 50.13 7.77L50.13 11.97C49.56 12.61 48.92 12.95 48.22 12.95ZM54.21 5.12C54.29 5.21 54.38 5.26 54.49 5.32C54.60 5.38 54.71 5.39 54.82 5.39C54.94 5.39 55.05 5.38 55.16 5.32C55.27 5.26 55.36 5.21 55.44 5.12C55.52 5.04 55.58 4.96 55.64 4.84C55.69 4.73 55.72 4.62 55.72 4.51C55.72 4.40 55.69 4.27 55.64 4.16C55.58 4.05 55.52 3.95 55.44 3.86C55.36 3.78 55.27 3.72 55.16 3.67C55.05 3.61 54.94 3.60 54.82 3.60C54.71 3.60 54.60 3.61 54.49 3.67C54.38 3.72 54.29 3.78 54.21 3.86C54.12 3.95 54.07 4.05 54.01 4.16C53.96 4.27 53.94 4.40 53.94 4.51C53.94 4.62 53.96 4.73 54.01 4.84C54.07 4.96 54.12 5.04 54.21 5.12ZM56.24 12.95C56.11 12.92 55.44 12.80 55.44 12.80L55.44 6.73L53.19 6.73L53.19 7.32C53.19 7.45 53.27 7.56 53.40 7.59C53.52 7.62 54.21 7.74 54.21 7.74L54.21 12.80C54.21 12.80 53.52 12.92 53.40 12.95C53.27 12.98 53.19 13.09 53.19 13.22L53.19 13.82L56.45 13.82L56.45 13.22C56.45 13.09 56.36 12.98 56.24 12.95ZM59.46 7.76L59.35 6.99C59.29 6.82 59.18 6.73 59.01 6.73L58.28 6.73L57.27 6.73L57.27 7.32C57.27 7.46 57.33 7.56 57.47 7.59C57.55 7.62 57.83 7.67 58.28 7.76L58.28 12.81L57.47 12.96C57.33 12.99 57.27 13.09 57.27 13.23L57.27 13.82L60.54 13.82L60.54 13.23C60.54 13.09 60.47 12.99 60.33 12.96C59.82 12.85 59.54 12.80 59.51 12.80L59.51 8.60C60.10 7.94 60.75 7.60 61.45 7.60C62.44 7.60 62.93 8.19 62.93 9.31L62.93 13.82L65.20 13.82L65.20 13.22C65.20 13.08 65.11 12.98 64.97 12.95C64.89 12.92 64.62 12.87 64.18 12.78L64.18 9.30C64.18 8.48 63.97 7.83 63.57 7.35C63.15 6.85 62.57 6.61 61.81 6.61C60.94 6.61 60.16 6.99 59.46 7.74ZM69.24 6.62C68.73 6.62 68.26 6.71 67.84 6.87C67.42 7.04 67.06 7.29 66.77 7.60C66.47 7.91 66.25 8.30 66.08 8.75C65.91 9.20 65.86 9.70 65.86 10.26C65.86 10.82 65.91 11.33 66.08 11.77C66.25 12.22 66.47 12.61 66.77 12.92C67.06 13.23 67.42 13.48 67.84 13.65C68.26 13.82 68.73 13.90 69.24 13.90C69.76 13.90 70.22 13.82 70.64 13.65C71.06 13.48 71.43 13.23 71.72 12.92C72.02 12.61 72.24 12.22 72.39 11.77C72.55 11.33 72.63 10.82 72.63 10.26C72.63 9.70 72.55 9.20 72.39 8.75C72.24 8.30 72.02 7.91 71.72 7.60C71.43 7.29 71.06 7.04 70.64 6.87C70.22 6.71 69.76 6.62 69.24 6.62ZM69.24 12.95C68.88 12.95 68.57 12.87 68.32 12.75C68.07 12.64 67.84 12.47 67.68 12.25C67.51 12.03 67.37 11.75 67.28 11.41C67.20 11.07 67.14 10.71 67.14 10.29C67.14 9.87 67.20 9.48 67.28 9.14C67.37 8.81 67.51 8.53 67.68 8.30C67.84 8.08 68.07 7.88 68.32 7.77C68.57 7.66 68.88 7.60 69.24 7.60C69.94 7.60 70.48 7.83 70.81 8.30C71.15 8.78 71.33 9.44 71.33 10.28C71.33 11.12 71.15 11.77 70.81 12.25C70.48 12.73 69.94 12.95 69.24 12.95Z"></path></g><!----><g data-v-423bf9ae="" id="aadc2253-07f2-4a46-820a-c1f44f769441" transform="matrix(1.406799554824829,0,0,1.406799554824829,163.0756072998047,-1.416969895362854)" stroke="none" fill="#9747FF"><path d="M18.9 13.5c0 1.6-1.3 3-3 3s-3-1.3-3-3c0-1.6 1.3-3 3-3s3 1.4 3 3zM23.4 6.1l1.4-1.4C19.9-.2 11.9-.2 7 4.7l1.4 1.4c4.1-4.1 10.8-4.1 15 0z"></path><path d="M22.5 6.9c-3.7-3.7-9.6-3.7-13.2 0l1.4 1.4c2.9-2.9 7.5-2.9 10.4 0l1.4-1.4z"></path><path d="M11.5 9.2l1.4 1.4c1.6-1.6 4.3-1.6 5.9 0l1.4-1.4c-2.4-2.4-6.3-2.4-8.7 0zM2.5 58.4h33.1v2H2.5zM41.4 58.4h10.9v2H41.4zM14.2 63h49.3v2H14.2zM3.5 53.4h24.8V29.9H3.5v23.5zm4.4-20.6c0-.6.4-1 1-1 3 0 5.6 1.6 7 4.1 1.4-2.5 4-4.1 7-4.1.6 0 1 .4 1 1 0 4.1-3 7.4-7 7.9v2.7c1.5-1.7 3.6-2.7 6-2.7.6 0 1 .4 1 1 0 4.1-3 7.4-7 7.9v.8h-2v-.8c-3.9-.5-7-3.9-7-7.9 0-.6.4-1 1-1 2.2 0 4.4.9 6 2.7v-2.7c-4-.4-7-3.8-7-7.9z"></path><path d="M10 42.8c.5 2.4 2.4 4.3 4.8 4.8-.5-2.4-2.4-4.3-4.8-4.8zM21.8 33.9c-2.4.5-4.3 2.4-4.8 4.8 2.4-.4 4.3-2.3 4.8-4.8zM10 33.9c.5 2.4 2.4 4.3 4.8 4.8-.5-2.4-2.4-4.3-4.8-4.8zM21.8 42.8c-2.4.5-4.3 2.4-4.8 4.8 2.4-.4 4.3-2.4 4.8-4.8zM39.6 20.8l-4.4-4.3h-7l4.5 4.3zM49.5 20.8L45 16.5h-7l4.5 4.3zM29.8 20.8l-4.5-4.3h-6.9l4.4 4.3zM15.9 16.9l-11 11h22zM40.3 42.7h8v10.8h-8zM51.5 22.8h-6.9l5.2 5.1h7zM40.3 29.9h8v10.8h-8zM41.7 22.8h-7l5.3 5.1h7zM50.3 29.9h8v10.8h-8zM50.3 42.7h8v10.8h-8zM31.9 22.8h-7l5.3 5.1h6.9zM30.4 29.9h8v10.8h-8zM30.4 42.7h8v10.8h-8z"></path></g><!----></svg>