<svg data-v-423bf9ae="" xmlns="http://www.w3.org/2000/svg" viewBox="0 0 435.75820375002917 163" class="iconAbove"><!----><!----><!----><g data-v-423bf9ae="" id="fac4473d-029a-4e9f-9b37-e41cfc460c07" fill="white" transform="matrix(5.946482181549072,0,0,5.946482181549072,0.000001111744495574385,60.1258659362793)"><path d="M3.17 16.77L3.17 16.77L1.37 17.26L1.20 17.14L1.20 17.14Q1.39 12.58 1.39 10.08L1.39 10.08L1.39 10.08Q1.39 8.61 1.32 8.37L1.32 8.37L1.32 8.37Q1.26 8.18 1.13 8.05L1.13 8.05L1.13 8.05Q1.00 7.92 0.78 7.86L0.78 7.86L0.78 7.86Q0.57 7.79 0.42 7.77L0.42 7.77L0.42 7.77Q0.27 7.74 0 7.71L0 7.71L0 7.43L0.11 7.31L0.11 7.31Q5.69 7.31 6.75 7.21L6.75 7.21L6.75 8.16L6.65 8.27L6.65 8.27Q6.04 8.24 5.27 8.19L5.27 8.19L5.27 8.19Q4.50 8.13 4.04 8.10L4.04 8.10L4.04 8.10Q3.58 8.07 3.49 8.07L3.49 8.07L3.49 8.07Q3.27 8.07 3.18 8.17L3.18 8.17L3.18 8.17Q3.08 8.26 3.08 8.57L3.08 8.57L3.08 11.28L3.08 11.28Q3.08 11.43 3.14 11.54L3.14 11.54L3.14 11.54Q3.21 11.64 3.32 11.64L3.32 11.64L3.32 11.64Q3.92 11.64 5.09 11.53L5.09 11.53L5.09 11.53Q6.25 11.42 6.47 11.41L6.47 11.41L6.65 11.57L6.65 12.33L6.65 12.33Q5.82 12.29 3.43 12.29L3.43 12.29L3.43 12.29Q3.24 12.29 3.16 12.37L3.16 12.37L3.16 12.37Q3.08 12.44 3.08 12.67L3.08 12.67L3.09 12.82L3.09 12.82Q3.09 12.98 3.10 13.25L3.10 13.25L3.10 13.25Q3.10 13.51 3.11 13.85L3.11 13.85L3.11 13.85Q3.12 14.19 3.13 14.58L3.13 14.58L3.13 14.58Q3.14 14.98 3.14 15.36L3.14 15.36L3.14 15.36Q3.15 15.74 3.16 16.11L3.16 16.11L3.16 16.11Q3.17 16.49 3.17 16.77ZM12.82 10.72L13.66 10.19L13.86 10.32L13.86 10.32Q13.63 12.65 13.63 14.14L13.63 14.14L13.63 14.14Q13.63 14.72 13.64 14.98L13.64 14.98L13.64 14.98Q13.64 15.24 13.69 15.55L13.69 15.55L13.69 15.55Q13.73 15.85 13.83 15.96L13.83 15.96L13.83 15.96Q13.92 16.06 14.10 16.06L14.10 16.06L14.10 16.06Q14.42 16.06 15.07 15.48L15.07 15.48L15.34 15.77L15.34 15.77Q15.09 16.06 14.87 16.29L14.87 16.29L14.87 16.29Q14.64 16.52 14.34 16.76L14.34 16.76L14.34 16.76Q14.04 17.00 13.70 17.13L13.70 17.13L13.70 17.13Q13.36 17.26 13.03 17.26L13.03 17.26L13.03 17.26Q12.28 17.26 12.16 16.33L12.16 16.33L11.98 16.26L11.98 16.26Q10.61 17.30 9.38 17.30L9.38 17.30L9.38 17.30Q8.84 17.30 8.44 17.02L8.44 17.02L8.44 17.02Q8.03 16.74 7.81 16.29L7.81 16.29L7.81 16.29Q7.59 15.84 7.49 15.36L7.49 15.36L7.49 15.36Q7.39 14.89 7.39 14.42L7.39 14.42L7.39 14.42Q7.39 12.29 8.25 11.20L8.25 11.20L8.25 11.20Q9.11 10.12 10.77 10.12L10.77 10.12L10.77 10.12Q11.83 10.12 12.82 10.72L12.82 10.72ZM12.19 12.46L12.19 12.46L12.19 12.46Q12.19 10.65 10.90 10.65L10.90 10.65L10.90 10.65Q10.51 10.65 10.20 10.80L10.20 10.80L10.20 10.80Q9.88 10.94 9.68 11.20L9.68 11.20L9.68 11.20Q9.48 11.46 9.33 11.78L9.33 11.78L9.33 11.78Q9.19 12.09 9.11 12.47L9.11 12.47L9.11 12.47Q9.04 12.85 9.00 13.19L9.00 13.19L9.00 13.19Q8.97 13.52 8.97 13.87L8.97 13.87L8.97 13.87Q8.97 14.27 9.04 14.65L9.04 14.65L9.04 14.65Q9.11 15.03 9.26 15.39L9.26 15.39L9.26 15.39Q9.41 15.76 9.72 15.99L9.72 15.99L9.72 15.99Q10.02 16.21 10.44 16.21L10.44 16.21L10.44 16.21Q11.27 16.21 12.08 15.45L12.08 15.45L12.08 15.45Q12.19 14.63 12.19 12.46ZM17.86 16.63L17.86 16.63L16.38 17.17L16.10 17.08L16.10 17.08Q16.19 13.81 16.19 12.97L16.19 12.97L16.19 12.97Q16.19 12.92 16.19 12.81L16.19 12.81L16.19 12.81Q16.19 12.61 16.19 12.51L16.19 12.51L16.19 12.51Q16.19 12.41 16.19 12.24L16.19 12.24L16.19 12.24Q16.18 12.07 16.17 11.98L16.17 11.98L16.17 11.98Q16.16 11.89 16.14 11.75L16.14 11.75L16.14 11.75Q16.11 11.62 16.07 11.55L16.07 11.55L16.07 11.55Q16.04 11.48 15.99 11.41L15.99 11.41L15.99 11.41Q15.93 11.34 15.86 11.31L15.86 11.31L15.86 11.31Q15.78 11.28 15.69 11.28L15.69 11.28L15.69 11.28Q15.50 11.28 15.22 11.41L15.22 11.41L15.22 11.41Q14.95 11.53 14.74 11.70L14.74 11.70L14.51 11.38L14.51 11.38Q14.84 11.12 15.04 10.98L15.04 10.98L15.04 10.98Q15.23 10.83 15.55 10.64L15.55 10.64L15.55 10.64Q15.87 10.44 16.16 10.34L16.16 10.34L16.16 10.34Q16.45 10.25 16.73 10.25L16.73 10.25L16.73 10.25Q17.26 10.25 17.46 10.56L17.46 10.56L17.46 10.56Q17.65 10.88 17.65 11.46L17.65 11.46L17.80 11.53L17.80 11.53Q18.34 10.98 18.86 10.63L18.86 10.63L18.86 10.63Q19.37 10.29 19.92 10.29L19.92 10.29L19.92 10.29Q20.48 10.29 20.75 10.65L20.75 10.65L20.75 10.65Q21.02 11.02 21.02 11.55L21.02 11.55L19.97 12.36L19.79 12.24L19.79 12.24Q19.72 11.92 19.52 11.70L19.52 11.70L19.52 11.70Q19.32 11.48 18.99 11.48L18.99 11.48L18.99 11.48Q18.60 11.48 18.32 11.68L18.32 11.68L18.32 11.68Q18.05 11.87 17.91 12.20L17.91 12.20L17.91 12.20Q17.78 12.52 17.72 12.84L17.72 12.84L17.72 12.84Q17.66 13.16 17.66 13.49L17.66 13.49L17.66 13.49Q17.66 14.42 17.86 16.63ZM23.53 11.73L23.53 11.73L23.53 11.73Q23.53 16.08 23.61 16.73L23.61 16.73L22.20 17.20L21.96 17.09L21.96 17.09Q22.06 14.84 22.06 13.03L22.06 13.03L22.06 13.03Q22.06 11.98 21.97 11.66L21.97 11.66L21.97 11.66Q21.85 11.22 21.51 11.22L21.51 11.22L21.51 11.22Q21.12 11.22 20.51 11.64L20.51 11.64L20.24 11.31L20.24 11.31Q20.64 10.99 20.95 10.78L20.95 10.78L20.95 10.78Q21.25 10.58 21.68 10.39L21.68 10.39L21.68 10.39Q22.11 10.20 22.48 10.20L22.48 10.20L22.48 10.20Q22.95 10.20 23.19 10.45L23.19 10.45L23.19 10.45Q23.44 10.69 23.47 11.09L23.47 11.09L23.61 11.14L23.61 11.14Q25.22 10.16 26.32 10.16L26.32 10.16L26.32 10.16Q26.83 10.16 27.23 10.42L27.23 10.42L27.23 10.42Q27.63 10.68 27.77 11.17L27.77 11.17L27.98 11.24L27.98 11.24Q28.04 11.20 28.33 11.03L28.33 11.03L28.33 11.03Q28.63 10.86 28.73 10.80L28.73 10.80L28.73 10.80Q28.83 10.75 29.08 10.62L29.08 10.62L29.08 10.62Q29.33 10.48 29.48 10.43L29.48 10.43L29.48 10.43Q29.62 10.38 29.84 10.30L29.84 10.30L29.84 10.30Q30.06 10.23 30.25 10.20L30.25 10.20L30.25 10.20Q30.45 10.17 30.64 10.17L30.64 10.17L30.64 10.17Q31.23 10.17 31.56 10.39L31.56 10.39L31.56 10.39Q31.90 10.60 32.05 11.15L32.05 11.15L32.05 11.15Q32.21 11.69 32.21 12.68L32.21 12.68L32.21 12.68Q32.21 12.98 32.18 13.81L32.18 13.81L32.18 13.81Q32.16 14.64 32.16 14.94L32.16 14.94L32.16 14.94Q32.16 15.82 32.73 15.82L32.73 15.82L32.73 15.82Q33.20 15.82 33.65 15.50L33.65 15.50L33.79 15.50L33.95 15.79L33.95 15.79Q33.66 16.06 33.55 16.17L33.55 16.17L33.55 16.17Q33.44 16.27 33.14 16.52L33.14 16.52L33.14 16.52Q32.85 16.76 32.66 16.87L32.66 16.87L32.66 16.87Q32.46 16.98 32.19 17.08L32.19 17.08L32.19 17.08Q31.92 17.19 31.68 17.19L31.68 17.19L31.68 17.19Q31.46 17.19 31.29 17.12L31.29 17.12L31.29 17.12Q31.12 17.05 30.97 16.87L30.97 16.87L30.97 16.87Q30.81 16.70 30.72 16.35L30.72 16.35L30.72 16.35Q30.64 16.00 30.64 15.50L30.64 15.50L30.64 15.50Q30.64 15.14 30.67 14.31L30.67 14.31L30.67 14.31Q30.70 13.48 30.70 13.13L30.70 13.13L30.70 13.13Q30.70 13.09 30.70 13.02L30.70 13.02L30.70 13.02Q30.70 12.78 30.70 12.65L30.70 12.65L30.70 12.65Q30.70 12.52 30.68 12.28L30.68 12.28L30.68 12.28Q30.66 12.04 30.63 11.90L30.63 11.90L30.63 11.90Q30.59 11.76 30.52 11.58L30.52 11.58L30.52 11.58Q30.44 11.40 30.33 11.30L30.33 11.30L30.33 11.30Q30.23 11.20 30.06 11.13L30.06 11.13L30.06 11.13Q29.90 11.05 29.69 11.05L29.69 11.05L29.69 11.05Q29.41 11.05 29.04 11.21L29.04 11.21L29.04 11.21Q28.66 11.36 28.41 11.52L28.41 11.52L28.41 11.52Q28.16 11.67 27.80 11.92L27.80 11.92L27.80 11.92Q27.80 15.61 27.88 16.73L27.88 16.73L26.50 17.21L26.27 17.10L26.27 17.10Q26.33 15.54 26.33 13.04L26.33 13.04L26.33 13.04Q26.33 12.16 26.25 11.82L26.25 11.82L26.25 11.82Q26.05 11.03 25.36 11.03L25.36 11.03L25.36 11.03Q24.64 11.03 23.53 11.73ZM38.41 17.10L34.46 17.10L34.46 16.91L34.46 16.91Q34.51 16.84 34.60 16.73L34.60 16.73L34.60 16.73Q34.69 16.63 34.72 16.58L34.72 16.58L34.72 16.58Q34.75 16.54 34.80 16.44L34.80 16.44L34.80 16.44Q34.85 16.34 34.87 16.24L34.87 16.24L34.87 16.24Q34.88 16.15 34.90 15.99L34.90 15.99L34.90 15.99Q34.91 15.83 34.91 15.61L34.91 15.61L34.91 9.60L34.91 9.60Q34.91 8.68 34.81 8.34L34.81 8.34L34.81 8.34Q34.78 8.24 34.73 8.16L34.73 8.16L34.73 8.16Q34.69 8.07 34.59 8.02L34.59 8.02L34.59 8.02Q34.50 7.96 34.43 7.93L34.43 7.93L34.43 7.93Q34.36 7.89 34.22 7.85L34.22 7.85L34.22 7.85Q34.08 7.82 34.01 7.81L34.01 7.81L34.01 7.81Q33.95 7.79 33.77 7.77L33.77 7.77L33.77 7.77Q33.60 7.75 33.55 7.74L33.55 7.74L33.55 7.40L33.63 7.31L39.44 7.31L39.44 7.31Q40.30 7.31 41.02 7.44L41.02 7.44L41.02 7.44Q41.74 7.57 42.26 7.79L42.26 7.79L42.26 7.79Q42.78 8.01 43.18 8.34L43.18 8.34L43.18 8.34Q43.58 8.67 43.83 9.04L43.83 9.04L43.83 9.04Q44.08 9.41 44.24 9.86L44.24 9.86L44.24 9.86Q44.40 10.32 44.46 10.76L44.46 10.76L44.46 10.76Q44.53 11.21 44.53 11.72L44.53 11.72L44.53 11.72Q44.53 14.19 43.06 15.52L43.06 15.52L43.06 15.52Q42.18 16.33 40.97 16.72L40.97 16.72L40.97 16.72Q39.76 17.10 38.41 17.10L38.41 17.10ZM36.66 9.04L36.66 14.50L36.66 14.50Q36.64 15.16 36.76 15.98L36.76 15.98L36.76 15.98Q36.78 16.15 36.89 16.26L36.89 16.26L36.89 16.26Q37.00 16.37 37.19 16.42L37.19 16.42L37.19 16.42Q37.37 16.47 37.54 16.48L37.54 16.48L37.54 16.48Q37.70 16.50 37.93 16.50L37.93 16.50L37.93 16.50Q40.00 16.50 41.13 15.45L41.13 15.45L41.13 15.45Q42.37 14.31 42.37 11.80L42.37 11.80L42.37 11.80Q42.37 11.07 42.24 10.48L42.24 10.48L42.24 10.48Q42.10 9.90 41.89 9.50L41.89 9.50L41.89 9.50Q41.67 9.10 41.33 8.80L41.33 8.80L41.33 8.80Q40.99 8.51 40.64 8.34L40.64 8.34L40.64 8.34Q40.28 8.18 39.81 8.08L39.81 8.08L39.81 8.08Q39.33 7.98 38.91 7.95L38.91 7.95L38.91 7.95Q38.49 7.92 37.96 7.92L37.96 7.92L37.96 7.92Q37.17 7.92 36.87 7.98L36.87 7.98L36.87 7.98Q36.72 8.00 36.69 8.16L36.69 8.16L36.69 8.16Q36.66 8.31 36.66 8.78L36.66 8.78L36.66 8.78Q36.66 8.95 36.66 9.04L36.66 9.04ZM50.59 10.57L50.59 10.57L52.03 10.09L52.19 10.23L52.19 10.23Q52.12 11.81 52.12 14.05L52.12 14.05L52.12 14.05Q52.12 14.10 52.11 14.31L52.11 14.31L52.11 14.31Q52.10 14.53 52.10 14.69L52.10 14.69L52.10 14.69Q52.10 14.85 52.12 15.08L52.12 15.08L52.12 15.08Q52.14 15.31 52.20 15.46L52.20 15.46L52.20 15.46Q52.26 15.61 52.39 15.72L52.39 15.72L52.39 15.72Q52.51 15.83 52.70 15.83L52.70 15.83L52.70 15.83Q52.99 15.83 53.65 15.44L53.65 15.44L53.79 15.44L53.90 15.72L53.90 15.72Q53.57 16.05 53.39 16.22L53.39 16.22L53.39 16.22Q53.20 16.39 52.87 16.67L52.87 16.67L52.87 16.67Q52.54 16.94 52.26 17.07L52.26 17.07L52.26 17.07Q51.97 17.20 51.72 17.20L51.72 17.20L51.72 17.20Q50.86 17.20 50.71 16.24L50.71 16.24L50.57 16.15L50.57 16.15Q50.48 16.21 50.16 16.38L50.16 16.38L50.16 16.38Q49.83 16.54 49.68 16.62L49.68 16.62L49.68 16.62Q49.53 16.70 49.25 16.83L49.25 16.83L49.25 16.83Q48.96 16.97 48.77 17.03L48.77 17.03L48.77 17.03Q48.58 17.09 48.35 17.14L48.35 17.14L48.35 17.14Q48.13 17.20 47.94 17.20L47.94 17.20L47.94 17.20Q47.07 17.20 46.58 16.74L46.58 16.74L46.58 16.74Q46.50 16.67 46.44 16.59L46.44 16.59L46.44 16.59Q46.38 16.52 46.34 16.41L46.34 16.41L46.34 16.41Q46.30 16.30 46.27 16.21L46.27 16.21L46.27 16.21Q46.24 16.12 46.22 15.96L46.22 15.96L46.22 15.96Q46.20 15.80 46.19 15.70L46.19 15.70L46.19 15.70Q46.18 15.59 46.18 15.38L46.18 15.38L46.18 15.38Q46.18 15.16 46.18 15.04L46.18 15.04L46.18 15.04Q46.18 14.92 46.18 14.65L46.18 14.65L46.18 14.65Q46.18 14.38 46.18 14.23L46.18 14.23L46.18 14.23Q46.18 14.07 46.18 13.76L46.18 13.76L46.18 13.76Q46.19 13.46 46.19 13.32L46.19 13.32L46.19 13.32Q46.19 13.20 46.19 12.97L46.19 12.97L46.19 12.97Q46.20 12.74 46.20 12.62L46.20 12.62L46.20 12.62Q46.20 12.50 46.19 12.30L46.19 12.30L46.19 12.30Q46.19 12.11 46.18 12.00L46.18 12.00L46.18 12.00Q46.16 11.89 46.14 11.74L46.14 11.74L46.14 11.74Q46.12 11.59 46.07 11.52L46.07 11.52L46.07 11.52Q46.03 11.44 45.97 11.36L45.97 11.36L45.97 11.36Q45.92 11.28 45.83 11.25L45.83 11.25L45.83 11.25Q45.75 11.21 45.64 11.21L45.64 11.21L45.64 11.21Q45.39 11.21 44.79 11.59L44.79 11.59L44.59 11.24L44.59 11.24Q44.94 10.98 45.12 10.86L45.12 10.86L45.12 10.86Q45.29 10.73 45.62 10.53L45.62 10.53L45.62 10.53Q45.95 10.33 46.23 10.24L46.23 10.24L46.23 10.24Q46.50 10.14 46.75 10.14L46.75 10.14L46.75 10.14Q47.07 10.14 47.29 10.25L47.29 10.25L47.29 10.25Q47.51 10.36 47.62 10.55L47.62 10.55L47.62 10.55Q47.73 10.75 47.77 10.97L47.77 10.97L47.77 10.97Q47.81 11.19 47.81 11.48L47.81 11.48L47.81 11.48Q47.81 11.73 47.76 12.60L47.76 12.60L47.76 12.60Q47.71 13.46 47.71 13.92L47.71 13.92L47.71 13.92Q47.71 14.39 47.74 14.71L47.74 14.71L47.74 14.71Q47.77 15.03 47.85 15.32L47.85 15.32L47.85 15.32Q47.93 15.62 48.08 15.79L48.08 15.79L48.08 15.79Q48.23 15.96 48.47 16.06L48.47 16.06L48.47 16.06Q48.71 16.17 49.06 16.17L49.06 16.17L49.06 16.17Q49.50 16.17 49.86 16.00L49.86 16.00L49.86 16.00Q50.22 15.83 50.65 15.50L50.65 15.50L50.65 15.50Q50.67 14.95 50.67 13.79L50.67 13.79L50.67 13.79Q50.67 12.11 50.59 10.57ZM54.58 9.05L54.58 9.05L54.58 9.05Q54.30 8.78 54.30 8.39L54.30 8.39L54.30 8.39Q54.30 8.01 54.58 7.74L54.58 7.74L54.58 7.74Q54.85 7.47 55.23 7.47L55.23 7.47L55.23 7.47Q55.60 7.47 55.88 7.74L55.88 7.74L55.88 7.74Q56.15 8.01 56.15 8.39L56.15 8.39L56.15 8.39Q56.15 8.78 55.88 9.05L55.88 9.05L55.88 9.05Q55.60 9.32 55.23 9.32L55.23 9.32L55.23 9.32Q54.85 9.32 54.58 9.05ZM57.54 15.42L57.54 15.42L57.78 15.65L57.78 15.80L57.78 15.80Q56.58 17.27 55.59 17.27L55.59 17.27L55.59 17.27Q55.04 17.27 54.75 16.88L54.75 16.88L54.75 16.88Q54.65 16.75 54.60 16.59L54.60 16.59L54.60 16.59Q54.54 16.43 54.51 16.28L54.51 16.28L54.51 16.28Q54.48 16.13 54.48 15.81L54.48 15.81L54.48 15.81Q54.47 15.50 54.47 15.26L54.47 15.26L54.47 15.26Q54.47 15.01 54.48 14.48L54.48 14.48L54.48 14.48Q54.48 13.95 54.48 13.54L54.48 13.54L54.48 11.89L54.48 11.89Q54.42 11.21 54.00 11.21L54.00 11.21L54.00 11.21Q53.65 11.21 53.03 11.66L53.03 11.66L52.81 11.35L52.81 11.35Q53.22 11.01 53.52 10.80L53.52 10.80L53.52 10.80Q53.83 10.59 54.28 10.39L54.28 10.39L54.28 10.39Q54.74 10.19 55.11 10.19L55.11 10.19L55.11 10.19Q55.62 10.19 55.82 10.51L55.82 10.51L55.82 10.51Q55.90 10.66 55.94 10.88L55.94 10.88L55.94 10.88Q55.98 11.10 55.98 11.68L55.98 11.68L55.98 11.68Q55.98 11.96 55.96 12.53L55.96 12.53L55.96 12.53Q55.94 13.10 55.94 13.38L55.94 13.38L55.94 13.38Q55.94 13.60 55.94 13.91L55.94 13.91L55.94 13.91Q55.93 14.23 55.93 14.41L55.93 14.41L55.93 14.41Q55.92 14.59 55.93 14.83L55.93 14.83L55.93 14.83Q55.93 15.07 55.95 15.21L55.95 15.21L55.95 15.21Q55.96 15.35 55.98 15.52L55.98 15.52L55.98 15.52Q56.01 15.68 56.05 15.77L56.05 15.77L56.05 15.77Q56.10 15.85 56.16 15.93L56.16 15.93L56.16 15.93Q56.23 16.02 56.32 16.05L56.32 16.05L56.32 16.05Q56.42 16.08 56.54 16.08L56.54 16.08L56.54 16.08Q56.70 16.08 56.90 15.96L56.90 15.96L56.90 15.96Q57.10 15.84 57.22 15.73L57.22 15.73L57.22 15.73Q57.34 15.62 57.54 15.42ZM59.94 11.80L59.94 11.80L59.94 11.80Q59.94 13.29 59.98 14.85L59.98 14.85L59.98 14.85Q60.01 16.41 60.08 16.70L60.08 16.70L58.54 17.14L58.37 17.05L58.37 17.05Q58.47 13.62 58.47 12.95L58.47 12.95L58.47 12.95Q58.47 12.91 58.47 12.83L58.47 12.83L58.47 12.83Q58.47 12.54 58.47 12.40L58.47 12.40L58.47 12.40Q58.47 12.26 58.45 12.02L58.45 12.02L58.45 12.02Q58.44 11.79 58.41 11.67L58.41 11.67L58.41 11.67Q58.37 11.55 58.32 11.42L58.32 11.42L58.32 11.42Q58.26 11.29 58.17 11.23L58.17 11.23L58.17 11.23Q58.07 11.17 57.94 11.17L57.94 11.17L57.94 11.17Q57.86 11.17 57.75 11.20L57.75 11.20L57.75 11.20Q57.65 11.24 57.52 11.30L57.52 11.30L57.52 11.30Q57.40 11.37 57.31 11.42L57.31 11.42L57.31 11.42Q57.22 11.46 57.10 11.54L57.10 11.54L57.10 11.54Q56.98 11.61 56.96 11.63L56.96 11.63L56.71 11.29L56.71 11.29Q57.01 11.05 57.24 10.89L57.24 10.89L57.24 10.89Q57.47 10.72 57.78 10.52L57.78 10.52L57.78 10.52Q58.09 10.33 58.40 10.23L58.40 10.23L58.40 10.23Q58.70 10.13 58.97 10.13L58.97 10.13L58.97 10.13Q59.47 10.13 59.67 10.39L59.67 10.39L59.67 10.39Q59.87 10.66 59.90 11.09L59.90 11.09L60.07 11.16L60.07 11.16Q61.65 10.17 62.86 10.17L62.86 10.17L62.86 10.17Q63.27 10.17 63.55 10.32L63.55 10.32L63.55 10.32Q63.83 10.47 63.98 10.63L63.98 10.63L63.98 10.63Q64.12 10.80 64.19 11.24L64.19 11.24L64.19 11.24Q64.26 11.68 64.27 11.94L64.27 11.94L64.27 11.94Q64.28 12.20 64.27 12.86L64.27 12.86L64.27 12.86Q64.27 13.13 64.27 13.27L64.27 13.27L64.27 13.27Q64.27 13.48 64.25 13.98L64.25 13.98L64.25 13.98Q64.22 14.49 64.22 14.71L64.22 14.71L64.22 14.71Q64.22 15.09 64.26 15.30L64.26 15.30L64.26 15.30Q64.29 15.52 64.33 15.58L64.33 15.58L64.33 15.58Q64.37 15.65 64.45 15.72L64.45 15.72L64.45 15.72Q64.59 15.86 64.85 15.86L64.85 15.86L64.85 15.86Q65.27 15.86 65.78 15.50L65.78 15.50L65.95 15.50L66.10 15.73L66.10 15.73Q65.37 16.46 65.05 16.71L65.05 16.71L65.05 16.71Q64.39 17.23 63.88 17.23L63.88 17.23L63.88 17.23Q63.42 17.23 63.12 16.95L63.12 16.95L63.12 16.95Q63.03 16.87 62.97 16.77L62.97 16.77L62.97 16.77Q62.91 16.67 62.88 16.49L62.88 16.49L62.88 16.49Q62.84 16.32 62.82 16.17L62.82 16.17L62.82 16.17Q62.80 16.02 62.79 15.72L62.79 15.72L62.79 15.72Q62.79 15.42 62.79 15.20L62.79 15.20L62.79 15.20Q62.79 14.98 62.80 14.52L62.80 14.52L62.80 14.52Q62.80 14.06 62.80 13.73L62.80 13.73L62.80 13.73Q62.80 13.16 62.79 12.80L62.79 12.80L62.79 12.80Q62.77 12.44 62.68 11.99L62.68 11.99L62.68 11.99Q62.59 11.54 62.42 11.38L62.42 11.38L62.42 11.38Q62.19 11.16 61.64 11.16L61.64 11.16L61.64 11.16Q61.13 11.16 59.94 11.80ZM67.94 13.82L67.94 13.82L67.94 13.82Q67.94 14.13 67.98 14.48L67.98 14.48L67.98 14.48Q68.02 14.82 68.13 15.22L68.13 15.22L68.13 15.22Q68.25 15.63 68.43 15.94L68.43 15.94L68.43 15.94Q68.61 16.25 68.92 16.46L68.92 16.46L68.92 16.46Q69.23 16.67 69.62 16.67L69.62 16.67L69.62 16.67Q69.99 16.67 70.28 16.56L70.28 16.56L70.28 16.56Q70.57 16.45 70.77 16.29L70.77 16.29L70.77 16.29Q70.96 16.13 71.10 15.85L71.10 15.85L71.10 15.85Q71.24 15.57 71.31 15.31L71.31 15.31L71.31 15.31Q71.38 15.06 71.42 14.68L71.42 14.68L71.42 14.68Q71.46 14.29 71.47 14.02L71.47 14.02L71.47 14.02Q71.48 13.75 71.48 13.34L71.48 13.34L71.48 13.34Q71.48 12.86 71.39 12.44L71.39 12.44L71.39 12.44Q71.31 12.02 71.13 11.65L71.13 11.65L71.13 11.65Q70.94 11.28 70.60 11.06L70.60 11.06L70.60 11.06Q70.25 10.85 69.78 10.85L69.78 10.85L69.78 10.85Q69.36 10.85 69.03 11.04L69.03 11.04L69.03 11.04Q68.69 11.24 68.50 11.54L68.50 11.54L68.50 11.54Q68.30 11.84 68.16 12.25L68.16 12.25L68.16 12.25Q68.03 12.65 67.98 13.04L67.98 13.04L67.98 13.04Q67.94 13.42 67.94 13.82ZM66.13 13.83L66.13 13.83L66.13 13.83Q66.13 12.30 67.18 11.29L67.18 11.29L67.18 11.29Q68.24 10.29 69.86 10.29L69.86 10.29L69.86 10.29Q71.49 10.29 72.34 11.05L72.34 11.05L72.34 11.05Q73.28 11.91 73.28 13.25L73.28 13.25L73.28 13.25Q73.28 14.10 73.08 14.77L73.08 14.77L73.08 14.77Q72.88 15.45 72.54 15.91L72.54 15.91L72.54 15.91Q72.20 16.37 71.72 16.67L71.72 16.67L71.72 16.67Q71.24 16.97 70.69 17.11L70.69 17.11L70.69 17.11Q70.14 17.25 69.50 17.25L69.50 17.25L69.50 17.25Q67.88 17.25 67.14 16.57L67.14 16.57L67.14 16.57Q66.13 15.66 66.13 13.83Z"></path></g><!----><g data-v-423bf9ae="" id="2d7ec0b7-10ba-440e-a744-78fa5abdbbbe" transform="matrix(1.7175573110580444,0,0,1.7175573110580444,163.0382537841797,-9.1690092086792)" stroke="none" fill="white"><path d="M59.24 57.21H6.54a.49.49 0 1 0 0 1h52.7a.49.49 0 1 0 0-1zM51.61 40.22a5.47 5.47 0 0 0 4.16 2 6.39 6.39 0 0 0 1.93-.32 9.36 9.36 0 0 0 6.3-8.19.5.5 0 0 0-.34-.49c-4.56-1.45-7.8-1.44-9.89.05-1.62 1.14-2.5 3.17-2.62 6a12.42 12.42 0 0 0-1.6 1.89 10.8 10.8 0 0 0-1.34-3.06c1.3-2.85 1.12-5.57-.52-7.47-2.33-2.63-7.13-3.22-12.84-1.43a.48.48 0 0 0-.33.59C35.93 35.37 38.2 38.9 41.1 40a5.74 5.74 0 0 0 2 .36 8.23 8.23 0 0 0 4.39-1.5A10.25 10.25 0 0 1 49 44.5v.78H15.43v-.77a13.06 13.06 0 0 0-.1-1.9 11 11 0 0 1 1.78-2.39 5.47 5.47 0 0 0 4.16 2 6.39 6.39 0 0 0 1.93-.32 9.37 9.37 0 0 0 6.3-8.14.52.52 0 0 0-.34-.49c-4.57-1.45-7.8-1.44-9.9.05-1.61 1.14-2.49 3.17-2.61 6a12.92 12.92 0 0 0-1.6 1.89 10.74 10.74 0 0 0-1.34-3c1.3-2.86 1.12-5.58-.52-7.48C10.86 28 6.06 27.41.35 29.2a.48.48 0 0 0-.33.59C1.43 35.37 3.7 38.9 6.6 40a5.74 5.74 0 0 0 2 .36 8.26 8.26 0 0 0 4.4-1.52 10.23 10.23 0 0 1 1.46 5.66v.78H6.54a.49.49 0 1 0 0 1h52.7a.49.49 0 1 0 0-1h-9.31v-.77a11.79 11.79 0 0 0-.1-1.9 11 11 0 0 1 1.78-2.39zm-31.78-6.15c1.75-1.24 4.66-1.24 8.66 0a8.52 8.52 0 0 1-5.59 6.87 4.58 4.58 0 0 1-5.09-1.39 15.11 15.11 0 0 1 6.78-3.28.49.49 0 0 0 .37-.59.48.48 0 0 0-.58-.37 16.28 16.28 0 0 0-6.67 3.07 5.79 5.79 0 0 1 2.12-4.31zm-12.89 5c-2.5-.93-4.52-4.06-5.85-9 5.13-1.5 9.35-1 11.35 1.29 1.28 1.48 1.48 3.59.61 5.88a22.21 22.21 0 0 0-7.49-5.78.49.49 0 0 0-.66.21.48.48 0 0 0 .2.66C8.64 34.14 11 36 12.45 38c-2.01 1.31-3.86 1.67-5.51 1.05zm34.5 0c-2.5-.93-4.52-4.06-5.85-9 5.13-1.5 9.35-1 11.36 1.29 1.27 1.48 1.47 3.59.6 5.88a22.21 22.21 0 0 0-7.49-5.78.49.49 0 0 0-.66.21.48.48 0 0 0 .2.66C43.14 34.14 45.49 36 47 38c-2.06 1.32-3.91 1.67-5.56 1.05zm12.89-5c1.75-1.24 4.67-1.24 8.66 0a8.5 8.5 0 0 1-5.59 6.87 4.6 4.6 0 0 1-5.09-1.39 15.11 15.11 0 0 1 6.78-3.28.5.5 0 0 0 .38-.59.49.49 0 0 0-.59-.37 16.34 16.34 0 0 0-6.67 3.07 5.83 5.83 0 0 1 2.12-4.31zM9.43 51a.51.51 0 0 0 .42-.23l1-1.61a.49.49 0 1 0-.83-.53L9 50.2a.49.49 0 0 0 .15.68.5.5 0 0 0 .28.12zM14.24 54.9a.48.48 0 0 0 .41-.23l1-1.62a.49.49 0 0 0-.84-.52l-1 1.61a.5.5 0 0 0 .15.68.56.56 0 0 0 .28.08zM21.26 51.44a.48.48 0 0 0 .41-.23l1-1.61a.49.49 0 1 0-.83-.53l-1 1.61a.49.49 0 0 0 .15.68.53.53 0 0 0 .27.08zM24.84 54.9a.51.51 0 0 0 .42-.23l1-1.62a.49.49 0 1 0-.83-.52l-1 1.61a.49.49 0 0 0 .15.68.5.5 0 0 0 .26.08zM28.5 51.31a.51.51 0 0 0 .42-.23l1-1.61a.49.49 0 0 0-.15-.68.5.5 0 0 0-.68.15l-1 1.62a.48.48 0 0 0 .41.75zM36.26 51a.48.48 0 0 0 .41-.23l1-1.61a.5.5 0 0 0-.16-.68.49.49 0 0 0-.68.15l-1 1.61a.5.5 0 0 0 .42.76zM41.06 54.9a.48.48 0 0 0 .42-.23l1-1.62a.49.49 0 0 0-.15-.68.5.5 0 0 0-.68.16l-1 1.61a.49.49 0 0 0 .15.68.5.5 0 0 0 .26.08zM48.08 51.44a.49.49 0 0 0 .42-.23l1-1.61a.49.49 0 0 0-.83-.53l-1 1.61a.49.49 0 0 0 .15.68.5.5 0 0 0 .26.08zM51.67 54.9a.48.48 0 0 0 .41-.23l1-1.62a.49.49 0 1 0-.84-.52l-1 1.61a.5.5 0 0 0 .15.68.56.56 0 0 0 .28.08zM55.33 51.31a.48.48 0 0 0 .41-.23l1-1.61a.5.5 0 0 0-.84-.53l-1 1.62a.5.5 0 0 0 .16.68.48.48 0 0 0 .27.07zM21.83 22.16h4.79v4.08a.5.5 0 0 0 .31.46.58.58 0 0 0 .18 0 .47.47 0 0 0 .35-.15l4.35-4.43h9.39a1.91 1.91 0 0 0 1.9-1.9V7.71a1.9 1.9 0 0 0-1.9-1.9H21.83a1.9 1.9 0 0 0-1.9 1.9v12.55a1.91 1.91 0 0 0 1.9 1.9zm-.92-14.45a.92.92 0 0 1 .92-.92H41.2a.92.92 0 0 1 .91.92v12.55a.91.91 0 0 1-.91.91h-9.69a.5.5 0 0 0-.27.14L27.6 25v-3.33a.49.49 0 0 0-.49-.5h-5.28a.92.92 0 0 1-.92-.91z"></path><path d="M24.77 11.77a.47.47 0 0 0 .35-.15 9.09 9.09 0 0 1 6.45-2.75h.05a8.68 8.68 0 0 1 6.28 2.74.49.49 0 0 0 .7 0 .5.5 0 0 0 0-.7 9.67 9.67 0 0 0-7-3h-.06a10 10 0 0 0-7.15 3.05.5.5 0 0 0 .35.84z"></path><path d="M26.13 12.8a.49.49 0 1 0 .66.72c3-2.72 6-2.72 9.11 0a.5.5 0 0 0 .7 0 .49.49 0 0 0-.05-.69C33 9.71 29.51 9.71 26.13 12.8z"></path><path d="M27.91 14.74a.48.48 0 0 0-.06.69.49.49 0 0 0 .69.07 4.24 4.24 0 0 1 5.72 0 .47.47 0 0 0 .3.1.51.51 0 0 0 .39-.19.5.5 0 0 0-.09-.69 5.21 5.21 0 0 0-6.95.02zM31.39 15.91a1.94 1.94 0 1 0 2 1.94 1.94 1.94 0 0 0-2-1.94zm0 2.9a1 1 0 1 1 1-1 1 1 0 0 1-1 1z"></path></g><!----></svg>