<svg width="1363" height="163" viewBox="0 0 1363 163" fill="none" xmlns="http://www.w3.org/2000/svg">
<path d="M0 15C0 6.71573 6.71573 0 15 0H37V163H15C6.71573 163 0 156.284 0 148V15Z" fill="#E111E0"/>
<rect width="1097" height="163" transform="translate(37)" fill="#F0F0F0"/>
<path d="M101.906 53.9219L94.3945 51.2383V48.0859L104.602 52.375V54.6367L101.906 53.9219ZM94.3945 56.1719L101.918 53.4297L104.602 52.7852V55.0352L94.3945 59.3242V56.1719ZM116.414 43.9375V61H112.898V43.9375H116.414ZM123.211 51.2266V53.9688H115.453V51.2266H123.211ZM124.031 43.9375V46.6914H115.453V43.9375H124.031ZM132.305 58.1406V52.4922C132.305 52.0859 132.238 51.7383 132.105 51.4492C131.973 51.1523 131.766 50.9219 131.484 50.7578C131.211 50.5938 130.855 50.5117 130.418 50.5117C130.043 50.5117 129.719 50.5781 129.445 50.7109C129.172 50.8359 128.961 51.0195 128.812 51.2617C128.664 51.4961 128.59 51.7734 128.59 52.0938H125.215C125.215 51.5547 125.34 51.043 125.59 50.5586C125.84 50.0742 126.203 49.6484 126.68 49.2812C127.156 48.9062 127.723 48.6133 128.379 48.4023C129.043 48.1914 129.785 48.0859 130.605 48.0859C131.59 48.0859 132.465 48.25 133.23 48.5781C133.996 48.9062 134.598 49.3984 135.035 50.0547C135.48 50.7109 135.703 51.5312 135.703 52.5156V57.9414C135.703 58.6367 135.746 59.207 135.832 59.6523C135.918 60.0898 136.043 60.4727 136.207 60.8008V61H132.797C132.633 60.6562 132.508 60.2266 132.422 59.7109C132.344 59.1875 132.305 58.6641 132.305 58.1406ZM132.75 53.2773L132.773 55.1875H130.887C130.441 55.1875 130.055 55.2383 129.727 55.3398C129.398 55.4414 129.129 55.5859 128.918 55.7734C128.707 55.9531 128.551 56.1641 128.449 56.4062C128.355 56.6484 128.309 56.9141 128.309 57.2031C128.309 57.4922 128.375 57.7539 128.508 57.9883C128.641 58.2148 128.832 58.3945 129.082 58.5273C129.332 58.6523 129.625 58.7148 129.961 58.7148C130.469 58.7148 130.91 58.6133 131.285 58.4102C131.66 58.207 131.949 57.957 132.152 57.6602C132.363 57.3633 132.473 57.082 132.48 56.8164L133.371 58.2461C133.246 58.5664 133.074 58.8984 132.855 59.2422C132.645 59.5859 132.375 59.9102 132.047 60.2148C131.719 60.5117 131.324 60.7578 130.863 60.9531C130.402 61.1406 129.855 61.2344 129.223 61.2344C128.418 61.2344 127.688 61.0742 127.031 60.7539C126.383 60.4258 125.867 59.9766 125.484 59.4062C125.109 58.8281 124.922 58.1719 124.922 57.4375C124.922 56.7734 125.047 56.1836 125.297 55.668C125.547 55.1523 125.914 54.7188 126.398 54.3672C126.891 54.0078 127.504 53.7383 128.238 53.5586C128.973 53.3711 129.824 53.2773 130.793 53.2773H132.75ZM141.68 51.0859V61H138.305V48.3203H141.48L141.68 51.0859ZM145.5 48.2383L145.441 51.3672C145.277 51.3438 145.078 51.3242 144.844 51.3086C144.617 51.2852 144.41 51.2734 144.223 51.2734C143.746 51.2734 143.332 51.3359 142.98 51.4609C142.637 51.5781 142.348 51.7539 142.113 51.9883C141.887 52.2227 141.715 52.5078 141.598 52.8438C141.488 53.1797 141.426 53.5625 141.41 53.9922L140.73 53.7812C140.73 52.9609 140.812 52.207 140.977 51.5195C141.141 50.8242 141.379 50.2188 141.691 49.7031C142.012 49.1875 142.402 48.7891 142.863 48.5078C143.324 48.2266 143.852 48.0859 144.445 48.0859C144.633 48.0859 144.824 48.1016 145.02 48.1328C145.215 48.1562 145.375 48.1914 145.5 48.2383ZM150.469 50.9453V61H147.082V48.3203H150.258L150.469 50.9453ZM150 54.2148H149.062C149.062 53.332 149.168 52.5195 149.379 51.7773C149.598 51.0273 149.914 50.3789 150.328 49.832C150.75 49.2773 151.27 48.8477 151.887 48.543C152.504 48.2383 153.219 48.0859 154.031 48.0859C154.594 48.0859 155.109 48.1719 155.578 48.3438C156.047 48.5078 156.449 48.7695 156.785 49.1289C157.129 49.4805 157.395 49.9414 157.582 50.5117C157.77 51.0742 157.863 51.75 157.863 52.5391V61H154.488V52.9141C154.488 52.3359 154.41 51.8906 154.254 51.5781C154.098 51.2656 153.875 51.0469 153.586 50.9219C153.305 50.7969 152.965 50.7344 152.566 50.7344C152.129 50.7344 151.746 50.8242 151.418 51.0039C151.098 51.1836 150.832 51.4336 150.621 51.7539C150.41 52.0664 150.254 52.4336 150.152 52.8555C150.051 53.2773 150 53.7305 150 54.2148ZM157.547 53.8281L156.34 53.9805C156.34 53.1523 156.441 52.3828 156.645 51.6719C156.855 50.9609 157.164 50.3359 157.57 49.7969C157.984 49.2578 158.496 48.8398 159.105 48.543C159.715 48.2383 160.418 48.0859 161.215 48.0859C161.824 48.0859 162.379 48.1758 162.879 48.3555C163.379 48.5273 163.805 48.8047 164.156 49.1875C164.516 49.5625 164.789 50.0547 164.977 50.6641C165.172 51.2734 165.27 52.0195 165.27 52.9023V61H161.883V52.9023C161.883 52.3164 161.805 51.8711 161.648 51.5664C161.5 51.2539 161.281 51.0391 160.992 50.9219C160.711 50.7969 160.375 50.7344 159.984 50.7344C159.578 50.7344 159.223 50.8164 158.918 50.9805C158.613 51.1367 158.359 51.3555 158.156 51.6367C157.953 51.918 157.801 52.2461 157.699 52.6211C157.598 52.9883 157.547 53.3906 157.547 53.8281ZM173.332 61H169.617L169.641 58.2578H173.332C174.254 58.2578 175.031 58.0508 175.664 57.6367C176.297 57.2148 176.773 56.6016 177.094 55.7969C177.422 54.9922 177.586 54.0195 177.586 52.8789V52.0469C177.586 51.1719 177.492 50.4023 177.305 49.7383C177.125 49.0742 176.855 48.5156 176.496 48.0625C176.137 47.6094 175.695 47.2695 175.172 47.043C174.648 46.8086 174.047 46.6914 173.367 46.6914H169.547V43.9375H173.367C174.508 43.9375 175.551 44.1328 176.496 44.5234C177.449 44.9062 178.273 45.457 178.969 46.1758C179.664 46.8945 180.199 47.7539 180.574 48.7539C180.957 49.7461 181.148 50.8516 181.148 52.0703V52.8789C181.148 54.0898 180.957 55.1953 180.574 56.1953C180.199 57.1953 179.664 58.0547 178.969 58.7734C178.281 59.4844 177.457 60.0352 176.496 60.4258C175.543 60.8086 174.488 61 173.332 61ZM171.609 43.9375V61H168.094V43.9375H171.609ZM190.992 57.9648V48.3203H194.367V61H191.191L190.992 57.9648ZM191.367 55.3633L192.363 55.3398C192.363 56.1836 192.266 56.9688 192.07 57.6953C191.875 58.4141 191.582 59.0391 191.191 59.5703C190.801 60.0938 190.309 60.5039 189.715 60.8008C189.121 61.0898 188.422 61.2344 187.617 61.2344C187 61.2344 186.43 61.1484 185.906 60.9766C185.391 60.7969 184.945 60.5195 184.57 60.1445C184.203 59.7617 183.914 59.2734 183.703 58.6797C183.5 58.0781 183.398 57.3555 183.398 56.5117V48.3203H186.773V56.5352C186.773 56.9102 186.816 57.2266 186.902 57.4844C186.996 57.7422 187.125 57.9531 187.289 58.1172C187.453 58.2812 187.645 58.3984 187.863 58.4688C188.09 58.5391 188.34 58.5742 188.613 58.5742C189.309 58.5742 189.855 58.4336 190.254 58.1523C190.66 57.8711 190.945 57.4883 191.109 57.0039C191.281 56.5117 191.367 55.9648 191.367 55.3633ZM200.508 48.3203V61H197.121V48.3203H200.508ZM196.91 45.0156C196.91 44.5234 197.082 44.1172 197.426 43.7969C197.77 43.4766 198.23 43.3164 198.809 43.3164C199.379 43.3164 199.836 43.4766 200.18 43.7969C200.531 44.1172 200.707 44.5234 200.707 45.0156C200.707 45.5078 200.531 45.9141 200.18 46.2344C199.836 46.5547 199.379 46.7148 198.809 46.7148C198.23 46.7148 197.77 46.5547 197.426 46.2344C197.082 45.9141 196.91 45.5078 196.91 45.0156ZM206.602 51.0273V61H203.227V48.3203H206.391L206.602 51.0273ZM206.109 54.2148H205.195C205.195 53.2773 205.316 52.4336 205.559 51.6836C205.801 50.9258 206.141 50.2812 206.578 49.75C207.016 49.2109 207.535 48.8008 208.137 48.5195C208.746 48.2305 209.426 48.0859 210.176 48.0859C210.77 48.0859 211.312 48.1719 211.805 48.3438C212.297 48.5156 212.719 48.7891 213.07 49.1641C213.43 49.5391 213.703 50.0352 213.891 50.6523C214.086 51.2695 214.184 52.0234 214.184 52.9141V61H210.785V52.9023C210.785 52.3398 210.707 51.9023 210.551 51.5898C210.395 51.2773 210.164 51.0586 209.859 50.9336C209.562 50.8008 209.195 50.7344 208.758 50.7344C208.305 50.7344 207.91 50.8242 207.574 51.0039C207.246 51.1836 206.973 51.4336 206.754 51.7539C206.543 52.0664 206.383 52.4336 206.273 52.8555C206.164 53.2773 206.109 53.7305 206.109 54.2148ZM216.211 54.7891V54.543C216.211 53.6133 216.344 52.7578 216.609 51.9766C216.875 51.1875 217.262 50.5039 217.77 49.9258C218.277 49.3477 218.902 48.8984 219.645 48.5781C220.387 48.25 221.238 48.0859 222.199 48.0859C223.16 48.0859 224.016 48.25 224.766 48.5781C225.516 48.8984 226.145 49.3477 226.652 49.9258C227.168 50.5039 227.559 51.1875 227.824 51.9766C228.09 52.7578 228.223 53.6133 228.223 54.543V54.7891C228.223 55.7109 228.09 56.5664 227.824 57.3555C227.559 58.1367 227.168 58.8203 226.652 59.4062C226.145 59.9844 225.52 60.4336 224.777 60.7539C224.035 61.0742 223.184 61.2344 222.223 61.2344C221.262 61.2344 220.406 61.0742 219.656 60.7539C218.914 60.4336 218.285 59.9844 217.77 59.4062C217.262 58.8203 216.875 58.1367 216.609 57.3555C216.344 56.5664 216.211 55.7109 216.211 54.7891ZM219.586 54.543V54.7891C219.586 55.3203 219.633 55.8164 219.727 56.2773C219.82 56.7383 219.969 57.1445 220.172 57.4961C220.383 57.8398 220.656 58.1094 220.992 58.3047C221.328 58.5 221.738 58.5977 222.223 58.5977C222.691 58.5977 223.094 58.5 223.43 58.3047C223.766 58.1094 224.035 57.8398 224.238 57.4961C224.441 57.1445 224.59 56.7383 224.684 56.2773C224.785 55.8164 224.836 55.3203 224.836 54.7891V54.543C224.836 54.0273 224.785 53.543 224.684 53.0898C224.59 52.6289 224.438 52.2227 224.227 51.8711C224.023 51.5117 223.754 51.2305 223.418 51.0273C223.082 50.8242 222.676 50.7227 222.199 50.7227C221.723 50.7227 221.316 50.8242 220.98 51.0273C220.652 51.2305 220.383 51.5117 220.172 51.8711C219.969 52.2227 219.82 52.6289 219.727 53.0898C219.633 53.543 219.586 54.0273 219.586 54.543Z" fill="#888888"/>
<path d="M109.219 107.422H100.734V101.07H109.219C110.375 101.07 111.312 100.875 112.031 100.484C112.75 100.094 113.273 99.5547 113.602 98.8672C113.945 98.1641 114.117 97.375 114.117 96.5C114.117 95.5625 113.945 94.6953 113.602 93.8984C113.273 93.1016 112.75 92.4609 112.031 91.9766C111.312 91.4766 110.375 91.2266 109.219 91.2266H103.828V119H95.6016V84.875H109.219C111.953 84.875 114.305 85.375 116.273 86.375C118.258 87.375 119.781 88.75 120.844 90.5C121.906 92.2344 122.438 94.2188 122.438 96.4531C122.438 98.6562 121.906 100.578 120.844 102.219C119.781 103.859 118.258 105.141 116.273 106.062C114.305 106.969 111.953 107.422 109.219 107.422ZM134.461 99.9219V119H126.562V93.6406H133.945L134.461 99.9219ZM141.961 93.4531L141.82 100.789C141.508 100.758 141.086 100.719 140.555 100.672C140.023 100.625 139.578 100.602 139.219 100.602C138.297 100.602 137.5 100.711 136.828 100.93C136.172 101.133 135.625 101.445 135.188 101.867C134.766 102.273 134.453 102.789 134.25 103.414C134.062 104.039 133.977 104.766 133.992 105.594L132.562 104.656C132.562 102.953 132.727 101.406 133.055 100.016C133.398 98.6094 133.883 97.3984 134.508 96.3828C135.133 95.3516 135.891 94.5625 136.781 94.0156C137.672 93.4531 138.672 93.1719 139.781 93.1719C140.172 93.1719 140.555 93.1953 140.93 93.2422C141.32 93.2891 141.664 93.3594 141.961 93.4531ZM142.852 106.578V106.086C142.852 104.227 143.117 102.516 143.648 100.953C144.18 99.375 144.961 98.0078 145.992 96.8516C147.023 95.6953 148.297 94.7969 149.812 94.1562C151.328 93.5 153.078 93.1719 155.062 93.1719C157.062 93.1719 158.82 93.5 160.336 94.1562C161.867 94.7969 163.148 95.6953 164.18 96.8516C165.211 98.0078 165.992 99.375 166.523 100.953C167.055 102.516 167.32 104.227 167.32 106.086V106.578C167.32 108.422 167.055 110.133 166.523 111.711C165.992 113.273 165.211 114.641 164.18 115.812C163.148 116.969 161.875 117.867 160.359 118.508C158.844 119.148 157.094 119.469 155.109 119.469C153.125 119.469 151.367 119.148 149.836 118.508C148.305 117.867 147.023 116.969 145.992 115.812C144.961 114.641 144.18 113.273 143.648 111.711C143.117 110.133 142.852 108.422 142.852 106.578ZM150.75 106.086V106.578C150.75 107.531 150.82 108.422 150.961 109.25C151.102 110.078 151.336 110.805 151.664 111.43C151.992 112.039 152.438 112.516 153 112.859C153.562 113.203 154.266 113.375 155.109 113.375C155.938 113.375 156.625 113.203 157.172 112.859C157.734 112.516 158.18 112.039 158.508 111.43C158.836 110.805 159.07 110.078 159.211 109.25C159.352 108.422 159.422 107.531 159.422 106.578V106.086C159.422 105.164 159.352 104.297 159.211 103.484C159.07 102.656 158.836 101.93 158.508 101.305C158.18 100.664 157.734 100.164 157.172 99.8047C156.609 99.4453 155.906 99.2656 155.062 99.2656C154.234 99.2656 153.539 99.4453 152.977 99.8047C152.43 100.164 151.992 100.664 151.664 101.305C151.336 101.93 151.102 102.656 150.961 103.484C150.82 104.297 150.75 105.164 150.75 106.086ZM184.195 93.6406V99.125H168.914V93.6406H184.195ZM172.125 87.3359H180.023V110.727C180.023 111.398 180.102 111.922 180.258 112.297C180.414 112.656 180.68 112.914 181.055 113.07C181.445 113.211 181.961 113.281 182.602 113.281C183.055 113.281 183.43 113.273 183.727 113.258C184.023 113.227 184.305 113.188 184.57 113.141V118.789C183.898 119.008 183.195 119.172 182.461 119.281C181.727 119.406 180.945 119.469 180.117 119.469C178.43 119.469 176.984 119.203 175.781 118.672C174.594 118.141 173.688 117.305 173.062 116.164C172.438 115.023 172.125 113.539 172.125 111.711V87.3359ZM185.648 106.578V106.086C185.648 104.227 185.914 102.516 186.445 100.953C186.977 99.375 187.758 98.0078 188.789 96.8516C189.82 95.6953 191.094 94.7969 192.609 94.1562C194.125 93.5 195.875 93.1719 197.859 93.1719C199.859 93.1719 201.617 93.5 203.133 94.1562C204.664 94.7969 205.945 95.6953 206.977 96.8516C208.008 98.0078 208.789 99.375 209.32 100.953C209.852 102.516 210.117 104.227 210.117 106.086V106.578C210.117 108.422 209.852 110.133 209.32 111.711C208.789 113.273 208.008 114.641 206.977 115.812C205.945 116.969 204.672 117.867 203.156 118.508C201.641 119.148 199.891 119.469 197.906 119.469C195.922 119.469 194.164 119.148 192.633 118.508C191.102 117.867 189.82 116.969 188.789 115.812C187.758 114.641 186.977 113.273 186.445 111.711C185.914 110.133 185.648 108.422 185.648 106.578ZM193.547 106.086V106.578C193.547 107.531 193.617 108.422 193.758 109.25C193.898 110.078 194.133 110.805 194.461 111.43C194.789 112.039 195.234 112.516 195.797 112.859C196.359 113.203 197.062 113.375 197.906 113.375C198.734 113.375 199.422 113.203 199.969 112.859C200.531 112.516 200.977 112.039 201.305 111.43C201.633 110.805 201.867 110.078 202.008 109.25C202.148 108.422 202.219 107.531 202.219 106.578V106.086C202.219 105.164 202.148 104.297 202.008 103.484C201.867 102.656 201.633 101.93 201.305 101.305C200.977 100.664 200.531 100.164 199.969 99.8047C199.406 99.4453 198.703 99.2656 197.859 99.2656C197.031 99.2656 196.336 99.4453 195.773 99.8047C195.227 100.164 194.789 100.664 194.461 101.305C194.133 101.93 193.898 102.656 193.758 103.484C193.617 104.297 193.547 105.164 193.547 106.086ZM226.992 93.6406V99.125H211.711V93.6406H226.992ZM214.922 87.3359H222.82V110.727C222.82 111.398 222.898 111.922 223.055 112.297C223.211 112.656 223.477 112.914 223.852 113.07C224.242 113.211 224.758 113.281 225.398 113.281C225.852 113.281 226.227 113.273 226.523 113.258C226.82 113.227 227.102 113.188 227.367 113.141V118.789C226.695 119.008 225.992 119.172 225.258 119.281C224.523 119.406 223.742 119.469 222.914 119.469C221.227 119.469 219.781 119.203 218.578 118.672C217.391 118.141 216.484 117.305 215.859 116.164C215.234 115.023 214.922 113.539 214.922 111.711V87.3359ZM237.914 116.023L244.477 93.6406H252.961L242.766 122.773C242.547 123.414 242.258 124.102 241.898 124.836C241.539 125.586 241.047 126.297 240.422 126.969C239.797 127.641 238.992 128.188 238.008 128.609C237.039 129.031 235.836 129.242 234.398 129.242C233.633 129.242 233.07 129.203 232.711 129.125C232.367 129.062 231.836 128.945 231.117 128.773V123.125C231.32 123.125 231.492 123.125 231.633 123.125C231.789 123.125 231.961 123.125 232.148 123.125C232.992 123.125 233.664 123.039 234.164 122.867C234.68 122.695 235.07 122.445 235.336 122.117C235.617 121.789 235.836 121.391 235.992 120.922L237.914 116.023ZM236.25 93.6406L241.242 111.383L242.109 119.75H236.812L227.789 93.6406H236.25ZM262.992 98.5156V128.75H255.094V93.6406H262.453L262.992 98.5156ZM278.555 106.016V106.508C278.555 108.352 278.344 110.062 277.922 111.641C277.5 113.219 276.875 114.594 276.047 115.766C275.219 116.938 274.188 117.852 272.953 118.508C271.734 119.148 270.32 119.469 268.711 119.469C267.195 119.469 265.891 119.133 264.797 118.461C263.703 117.789 262.789 116.859 262.055 115.672C261.32 114.484 260.727 113.125 260.273 111.594C259.82 110.062 259.461 108.445 259.195 106.742V106.109C259.461 104.281 259.82 102.586 260.273 101.023C260.727 99.4453 261.32 98.0703 262.055 96.8984C262.789 95.7266 263.695 94.8125 264.773 94.1562C265.867 93.5 267.172 93.1719 268.688 93.1719C270.297 93.1719 271.711 93.4766 272.93 94.0859C274.164 94.6953 275.195 95.5703 276.023 96.7109C276.867 97.8359 277.5 99.1875 277.922 100.766C278.344 102.344 278.555 104.094 278.555 106.016ZM270.656 106.508V106.016C270.656 105.031 270.586 104.133 270.445 103.32C270.305 102.492 270.078 101.773 269.766 101.164C269.469 100.555 269.07 100.086 268.57 99.7578C268.07 99.4297 267.453 99.2656 266.719 99.2656C265.875 99.2656 265.164 99.3984 264.586 99.6641C264.023 99.9141 263.57 100.305 263.227 100.836C262.898 101.352 262.664 102 262.523 102.781C262.398 103.547 262.344 104.445 262.359 105.477V107.398C262.328 108.586 262.445 109.633 262.711 110.539C262.977 111.43 263.438 112.125 264.094 112.625C264.75 113.125 265.641 113.375 266.766 113.375C267.516 113.375 268.141 113.203 268.641 112.859C269.141 112.5 269.539 112.008 269.836 111.383C270.133 110.742 270.344 110.008 270.469 109.18C270.594 108.352 270.656 107.461 270.656 106.508ZM290.414 93.6406V119H282.492V93.6406H290.414ZM282.023 87.1016C282.023 85.9766 282.43 85.0547 283.242 84.3359C284.055 83.6172 285.109 83.2578 286.406 83.2578C287.703 83.2578 288.758 83.6172 289.57 84.3359C290.383 85.0547 290.789 85.9766 290.789 87.1016C290.789 88.2266 290.383 89.1484 289.57 89.8672C288.758 90.5859 287.703 90.9453 286.406 90.9453C285.109 90.9453 284.055 90.5859 283.242 89.8672C282.43 89.1484 282.023 88.2266 282.023 87.1016ZM303.047 99.0547V119H295.148V93.6406H302.555L303.047 99.0547ZM302.109 105.453L300.258 105.5C300.258 103.562 300.492 101.836 300.961 100.32C301.43 98.7891 302.094 97.4922 302.953 96.4297C303.812 95.3672 304.836 94.5625 306.023 94.0156C307.227 93.4531 308.562 93.1719 310.031 93.1719C311.203 93.1719 312.273 93.3438 313.242 93.6875C314.227 94.0312 315.07 94.5859 315.773 95.3516C316.492 96.1172 317.039 97.1328 317.414 98.3984C317.805 99.6484 318 101.195 318 103.039V119H310.055V103.016C310.055 102 309.914 101.227 309.633 100.695C309.352 100.148 308.945 99.7734 308.414 99.5703C307.883 99.3672 307.234 99.2656 306.469 99.2656C305.656 99.2656 304.969 99.4219 304.406 99.7344C303.844 100.047 303.391 100.484 303.047 101.047C302.719 101.594 302.477 102.242 302.32 102.992C302.18 103.742 302.109 104.562 302.109 105.453ZM338.32 93.6406H345.492V118.016C345.492 120.359 344.953 122.344 343.875 123.969C342.797 125.609 341.289 126.852 339.352 127.695C337.43 128.555 335.18 128.984 332.602 128.984C331.461 128.984 330.297 128.836 329.109 128.539C327.922 128.258 326.812 127.836 325.781 127.273C324.75 126.711 323.883 126.016 323.18 125.188L326.484 120.547C327.125 121.266 327.93 121.875 328.898 122.375C329.867 122.891 331.008 123.148 332.32 123.148C333.461 123.148 334.414 122.945 335.18 122.539C335.961 122.133 336.555 121.539 336.961 120.758C337.367 119.992 337.57 119.062 337.57 117.969V99.6406L338.32 93.6406ZM321.469 106.625V106.133C321.469 104.211 321.703 102.461 322.172 100.883C322.656 99.2891 323.344 97.9219 324.234 96.7812C325.141 95.625 326.234 94.7344 327.516 94.1094C328.797 93.4844 330.242 93.1719 331.852 93.1719C333.586 93.1719 335.008 93.5078 336.117 94.1797C337.242 94.8359 338.141 95.7578 338.812 96.9453C339.5 98.1328 340.031 99.5234 340.406 101.117C340.797 102.695 341.125 104.398 341.391 106.227V106.812C341.125 108.531 340.758 110.156 340.289 111.688C339.836 113.203 339.242 114.547 338.508 115.719C337.773 116.891 336.852 117.812 335.742 118.484C334.648 119.141 333.336 119.469 331.805 119.469C330.211 119.469 328.773 119.148 327.492 118.508C326.227 117.867 325.141 116.969 324.234 115.812C323.344 114.656 322.656 113.297 322.172 111.734C321.703 110.172 321.469 108.469 321.469 106.625ZM329.367 106.133V106.625C329.367 107.578 329.453 108.461 329.625 109.273C329.812 110.086 330.094 110.805 330.469 111.43C330.844 112.039 331.305 112.516 331.852 112.859C332.414 113.203 333.07 113.375 333.82 113.375C334.961 113.375 335.883 113.133 336.586 112.648C337.289 112.164 337.797 111.477 338.109 110.586C338.422 109.695 338.555 108.648 338.508 107.445V105.594C338.539 104.562 338.469 103.656 338.297 102.875C338.125 102.078 337.852 101.414 337.477 100.883C337.117 100.352 336.633 99.9531 336.023 99.6875C335.43 99.4062 334.711 99.2656 333.867 99.2656C333.133 99.2656 332.484 99.4375 331.922 99.7812C331.359 100.125 330.891 100.609 330.516 101.234C330.141 101.844 329.852 102.57 329.648 103.414C329.461 104.242 329.367 105.148 329.367 106.133Z" fill="black"/>
<path d="M1134 0H1348C1356.28 0 1363 6.71573 1363 15V148C1363 156.284 1356.28 163 1348 163H1134V0Z" fill="url(#paint0_linear_401_273)"/>
<path fill-rule="evenodd" clip-rule="evenodd" d="M1202.75 46.5018C1202.75 45.3973 1203.65 44.5018 1204.75 44.5018H1292.25C1293.35 44.5018 1294.25 45.3973 1294.25 46.5018V116.498C1294.25 117.603 1293.35 118.498 1292.25 118.498H1204.75C1203.65 118.498 1202.75 117.603 1202.75 116.498V46.5018ZM1206.75 48.5018V52.9963H1290.25V48.5018H1206.75ZM1290.25 56.9963H1235.19V114.498H1290.25V56.9963ZM1231.19 114.498V56.9963H1206.75V114.498H1231.19Z" fill="white"/>
<path fill-rule="evenodd" clip-rule="evenodd" d="M1209.72 62.3022C1209.72 61.1976 1210.62 60.3022 1211.72 60.3022H1225.72C1226.83 60.3022 1227.72 61.1976 1227.72 62.3022V81.6974C1227.72 82.802 1226.83 83.6974 1225.72 83.6974H1211.72C1210.62 83.6974 1209.72 82.802 1209.72 81.6974V62.3022ZM1213.72 64.3022V79.6974H1223.72V64.3022H1213.72ZM1239.33 63.1982C1239.33 62.0936 1240.22 61.1982 1241.33 61.1982H1284.25C1285.36 61.1982 1286.25 62.0936 1286.25 63.1982V109.407C1286.25 110.511 1285.36 111.407 1284.25 111.407H1241.33C1240.22 111.407 1239.33 110.511 1239.33 109.407V63.1982ZM1243.33 65.1982V107.407H1282.25V65.1982H1243.33ZM1209.56 93.4381C1209.56 92.3336 1210.46 91.4381 1211.56 91.4381H1220.48C1221.59 91.4381 1222.48 92.3336 1222.48 93.4381C1222.48 94.5427 1221.59 95.4381 1220.48 95.4381H1211.56C1210.46 95.4381 1209.56 94.5427 1209.56 93.4381ZM1209.56 100.438C1209.56 99.3335 1210.46 98.4381 1211.56 98.4381H1226.1C1227.21 98.4381 1228.1 99.3335 1228.1 100.438C1228.1 101.543 1227.21 102.438 1226.1 102.438H1211.56C1210.46 102.438 1209.56 101.543 1209.56 100.438ZM1209.56 107.438C1209.56 106.334 1210.46 105.438 1211.56 105.438H1220.48C1221.59 105.438 1222.48 106.334 1222.48 107.438C1222.48 108.543 1221.59 109.438 1220.48 109.438H1211.56C1210.46 109.438 1209.56 108.543 1209.56 107.438Z" fill="white"/>
<defs>
<linearGradient id="paint0_linear_401_273" x1="1134" y1="0" x2="1363" y2="163" gradientUnits="userSpaceOnUse">
<stop stop-color="#E111E0"/>
<stop offset="1" stop-color="#0091FB"/>
</linearGradient>
</defs>
</svg>
