<svg width="1363" height="163" viewBox="0 0 1363 163" fill="none" xmlns="http://www.w3.org/2000/svg">
<path d="M0 15C0 6.71573 6.71573 0 15 0H37V163H15C6.71573 163 0 156.284 0 148V15Z" fill="#E111E0"/>
<rect width="1097" height="163" transform="translate(37)" fill="#F0F0F0"/>
<path d="M101.906 53.9219L94.3945 51.2383V48.0859L104.602 52.375V54.6367L101.906 53.9219ZM94.3945 56.1719L101.918 53.4297L104.602 52.7852V55.0352L94.3945 59.3242V56.1719ZM116.414 43.9375V61H112.898V43.9375H116.414ZM123.211 51.2266V53.9688H115.453V51.2266H123.211ZM124.031 43.9375V46.6914H115.453V43.9375H124.031ZM132.305 58.1406V52.4922C132.305 52.0859 132.238 51.7383 132.105 51.4492C131.973 51.1523 131.766 50.9219 131.484 50.7578C131.211 50.5938 130.855 50.5117 130.418 50.5117C130.043 50.5117 129.719 50.5781 129.445 50.7109C129.172 50.8359 128.961 51.0195 128.812 51.2617C128.664 51.4961 128.59 51.7734 128.59 52.0938H125.215C125.215 51.5547 125.34 51.043 125.59 50.5586C125.84 50.0742 126.203 49.6484 126.68 49.2812C127.156 48.9062 127.723 48.6133 128.379 48.4023C129.043 48.1914 129.785 48.0859 130.605 48.0859C131.59 48.0859 132.465 48.25 133.23 48.5781C133.996 48.9062 134.598 49.3984 135.035 50.0547C135.48 50.7109 135.703 51.5312 135.703 52.5156V57.9414C135.703 58.6367 135.746 59.207 135.832 59.6523C135.918 60.0898 136.043 60.4727 136.207 60.8008V61H132.797C132.633 60.6562 132.508 60.2266 132.422 59.7109C132.344 59.1875 132.305 58.6641 132.305 58.1406ZM132.75 53.2773L132.773 55.1875H130.887C130.441 55.1875 130.055 55.2383 129.727 55.3398C129.398 55.4414 129.129 55.5859 128.918 55.7734C128.707 55.9531 128.551 56.1641 128.449 56.4062C128.355 56.6484 128.309 56.9141 128.309 57.2031C128.309 57.4922 128.375 57.7539 128.508 57.9883C128.641 58.2148 128.832 58.3945 129.082 58.5273C129.332 58.6523 129.625 58.7148 129.961 58.7148C130.469 58.7148 130.91 58.6133 131.285 58.4102C131.66 58.207 131.949 57.957 132.152 57.6602C132.363 57.3633 132.473 57.082 132.48 56.8164L133.371 58.2461C133.246 58.5664 133.074 58.8984 132.855 59.2422C132.645 59.5859 132.375 59.9102 132.047 60.2148C131.719 60.5117 131.324 60.7578 130.863 60.9531C130.402 61.1406 129.855 61.2344 129.223 61.2344C128.418 61.2344 127.688 61.0742 127.031 60.7539C126.383 60.4258 125.867 59.9766 125.484 59.4062C125.109 58.8281 124.922 58.1719 124.922 57.4375C124.922 56.7734 125.047 56.1836 125.297 55.668C125.547 55.1523 125.914 54.7188 126.398 54.3672C126.891 54.0078 127.504 53.7383 128.238 53.5586C128.973 53.3711 129.824 53.2773 130.793 53.2773H132.75ZM141.68 51.0859V61H138.305V48.3203H141.48L141.68 51.0859ZM145.5 48.2383L145.441 51.3672C145.277 51.3438 145.078 51.3242 144.844 51.3086C144.617 51.2852 144.41 51.2734 144.223 51.2734C143.746 51.2734 143.332 51.3359 142.98 51.4609C142.637 51.5781 142.348 51.7539 142.113 51.9883C141.887 52.2227 141.715 52.5078 141.598 52.8438C141.488 53.1797 141.426 53.5625 141.41 53.9922L140.73 53.7812C140.73 52.9609 140.812 52.207 140.977 51.5195C141.141 50.8242 141.379 50.2188 141.691 49.7031C142.012 49.1875 142.402 48.7891 142.863 48.5078C143.324 48.2266 143.852 48.0859 144.445 48.0859C144.633 48.0859 144.824 48.1016 145.02 48.1328C145.215 48.1562 145.375 48.1914 145.5 48.2383ZM150.469 50.9453V61H147.082V48.3203H150.258L150.469 50.9453ZM150 54.2148H149.062C149.062 53.332 149.168 52.5195 149.379 51.7773C149.598 51.0273 149.914 50.3789 150.328 49.832C150.75 49.2773 151.27 48.8477 151.887 48.543C152.504 48.2383 153.219 48.0859 154.031 48.0859C154.594 48.0859 155.109 48.1719 155.578 48.3438C156.047 48.5078 156.449 48.7695 156.785 49.1289C157.129 49.4805 157.395 49.9414 157.582 50.5117C157.77 51.0742 157.863 51.75 157.863 52.5391V61H154.488V52.9141C154.488 52.3359 154.41 51.8906 154.254 51.5781C154.098 51.2656 153.875 51.0469 153.586 50.9219C153.305 50.7969 152.965 50.7344 152.566 50.7344C152.129 50.7344 151.746 50.8242 151.418 51.0039C151.098 51.1836 150.832 51.4336 150.621 51.7539C150.41 52.0664 150.254 52.4336 150.152 52.8555C150.051 53.2773 150 53.7305 150 54.2148ZM157.547 53.8281L156.34 53.9805C156.34 53.1523 156.441 52.3828 156.645 51.6719C156.855 50.9609 157.164 50.3359 157.57 49.7969C157.984 49.2578 158.496 48.8398 159.105 48.543C159.715 48.2383 160.418 48.0859 161.215 48.0859C161.824 48.0859 162.379 48.1758 162.879 48.3555C163.379 48.5273 163.805 48.8047 164.156 49.1875C164.516 49.5625 164.789 50.0547 164.977 50.6641C165.172 51.2734 165.27 52.0195 165.27 52.9023V61H161.883V52.9023C161.883 52.3164 161.805 51.8711 161.648 51.5664C161.5 51.2539 161.281 51.0391 160.992 50.9219C160.711 50.7969 160.375 50.7344 159.984 50.7344C159.578 50.7344 159.223 50.8164 158.918 50.9805C158.613 51.1367 158.359 51.3555 158.156 51.6367C157.953 51.918 157.801 52.2461 157.699 52.6211C157.598 52.9883 157.547 53.3906 157.547 53.8281ZM173.332 61H169.617L169.641 58.2578H173.332C174.254 58.2578 175.031 58.0508 175.664 57.6367C176.297 57.2148 176.773 56.6016 177.094 55.7969C177.422 54.9922 177.586 54.0195 177.586 52.8789V52.0469C177.586 51.1719 177.492 50.4023 177.305 49.7383C177.125 49.0742 176.855 48.5156 176.496 48.0625C176.137 47.6094 175.695 47.2695 175.172 47.043C174.648 46.8086 174.047 46.6914 173.367 46.6914H169.547V43.9375H173.367C174.508 43.9375 175.551 44.1328 176.496 44.5234C177.449 44.9062 178.273 45.457 178.969 46.1758C179.664 46.8945 180.199 47.7539 180.574 48.7539C180.957 49.7461 181.148 50.8516 181.148 52.0703V52.8789C181.148 54.0898 180.957 55.1953 180.574 56.1953C180.199 57.1953 179.664 58.0547 178.969 58.7734C178.281 59.4844 177.457 60.0352 176.496 60.4258C175.543 60.8086 174.488 61 173.332 61ZM171.609 43.9375V61H168.094V43.9375H171.609ZM190.992 57.9648V48.3203H194.367V61H191.191L190.992 57.9648ZM191.367 55.3633L192.363 55.3398C192.363 56.1836 192.266 56.9688 192.07 57.6953C191.875 58.4141 191.582 59.0391 191.191 59.5703C190.801 60.0938 190.309 60.5039 189.715 60.8008C189.121 61.0898 188.422 61.2344 187.617 61.2344C187 61.2344 186.43 61.1484 185.906 60.9766C185.391 60.7969 184.945 60.5195 184.57 60.1445C184.203 59.7617 183.914 59.2734 183.703 58.6797C183.5 58.0781 183.398 57.3555 183.398 56.5117V48.3203H186.773V56.5352C186.773 56.9102 186.816 57.2266 186.902 57.4844C186.996 57.7422 187.125 57.9531 187.289 58.1172C187.453 58.2812 187.645 58.3984 187.863 58.4688C188.09 58.5391 188.34 58.5742 188.613 58.5742C189.309 58.5742 189.855 58.4336 190.254 58.1523C190.66 57.8711 190.945 57.4883 191.109 57.0039C191.281 56.5117 191.367 55.9648 191.367 55.3633ZM200.508 48.3203V61H197.121V48.3203H200.508ZM196.91 45.0156C196.91 44.5234 197.082 44.1172 197.426 43.7969C197.77 43.4766 198.23 43.3164 198.809 43.3164C199.379 43.3164 199.836 43.4766 200.18 43.7969C200.531 44.1172 200.707 44.5234 200.707 45.0156C200.707 45.5078 200.531 45.9141 200.18 46.2344C199.836 46.5547 199.379 46.7148 198.809 46.7148C198.23 46.7148 197.77 46.5547 197.426 46.2344C197.082 45.9141 196.91 45.5078 196.91 45.0156ZM206.602 51.0273V61H203.227V48.3203H206.391L206.602 51.0273ZM206.109 54.2148H205.195C205.195 53.2773 205.316 52.4336 205.559 51.6836C205.801 50.9258 206.141 50.2812 206.578 49.75C207.016 49.2109 207.535 48.8008 208.137 48.5195C208.746 48.2305 209.426 48.0859 210.176 48.0859C210.77 48.0859 211.312 48.1719 211.805 48.3438C212.297 48.5156 212.719 48.7891 213.07 49.1641C213.43 49.5391 213.703 50.0352 213.891 50.6523C214.086 51.2695 214.184 52.0234 214.184 52.9141V61H210.785V52.9023C210.785 52.3398 210.707 51.9023 210.551 51.5898C210.395 51.2773 210.164 51.0586 209.859 50.9336C209.562 50.8008 209.195 50.7344 208.758 50.7344C208.305 50.7344 207.91 50.8242 207.574 51.0039C207.246 51.1836 206.973 51.4336 206.754 51.7539C206.543 52.0664 206.383 52.4336 206.273 52.8555C206.164 53.2773 206.109 53.7305 206.109 54.2148ZM216.211 54.7891V54.543C216.211 53.6133 216.344 52.7578 216.609 51.9766C216.875 51.1875 217.262 50.5039 217.77 49.9258C218.277 49.3477 218.902 48.8984 219.645 48.5781C220.387 48.25 221.238 48.0859 222.199 48.0859C223.16 48.0859 224.016 48.25 224.766 48.5781C225.516 48.8984 226.145 49.3477 226.652 49.9258C227.168 50.5039 227.559 51.1875 227.824 51.9766C228.09 52.7578 228.223 53.6133 228.223 54.543V54.7891C228.223 55.7109 228.09 56.5664 227.824 57.3555C227.559 58.1367 227.168 58.8203 226.652 59.4062C226.145 59.9844 225.52 60.4336 224.777 60.7539C224.035 61.0742 223.184 61.2344 222.223 61.2344C221.262 61.2344 220.406 61.0742 219.656 60.7539C218.914 60.4336 218.285 59.9844 217.77 59.4062C217.262 58.8203 216.875 58.1367 216.609 57.3555C216.344 56.5664 216.211 55.7109 216.211 54.7891ZM219.586 54.543V54.7891C219.586 55.3203 219.633 55.8164 219.727 56.2773C219.82 56.7383 219.969 57.1445 220.172 57.4961C220.383 57.8398 220.656 58.1094 220.992 58.3047C221.328 58.5 221.738 58.5977 222.223 58.5977C222.691 58.5977 223.094 58.5 223.43 58.3047C223.766 58.1094 224.035 57.8398 224.238 57.4961C224.441 57.1445 224.59 56.7383 224.684 56.2773C224.785 55.8164 224.836 55.3203 224.836 54.7891V54.543C224.836 54.0273 224.785 53.543 224.684 53.0898C224.59 52.6289 224.438 52.2227 224.227 51.8711C224.023 51.5117 223.754 51.2305 223.418 51.0273C223.082 50.8242 222.676 50.7227 222.199 50.7227C221.723 50.7227 221.316 50.8242 220.98 51.0273C220.652 51.2305 220.383 51.5117 220.172 51.8711C219.969 52.2227 219.82 52.6289 219.727 53.0898C219.633 53.543 219.586 54.0273 219.586 54.543Z" fill="#888888"/>
<path d="M112.125 84.875V119H103.898V84.875H112.125ZM122.391 84.875V91.2266H93.8672V84.875H122.391ZM135.68 119.469C133.617 119.469 131.773 119.148 130.148 118.508C128.523 117.852 127.148 116.953 126.023 115.812C124.914 114.672 124.062 113.359 123.469 111.875C122.891 110.391 122.602 108.82 122.602 107.164V106.273C122.602 104.414 122.859 102.695 123.375 101.117C123.891 99.5234 124.656 98.1328 125.672 96.9453C126.688 95.7578 127.961 94.8359 129.492 94.1797C131.023 93.5078 132.805 93.1719 134.836 93.1719C136.633 93.1719 138.242 93.4609 139.664 94.0391C141.086 94.6172 142.289 95.4453 143.273 96.5234C144.273 97.6016 145.031 98.9062 145.547 100.438C146.078 101.969 146.344 103.688 146.344 105.594V108.805H125.625V103.859H138.633V103.25C138.648 102.406 138.5 101.688 138.188 101.094C137.891 100.5 137.453 100.047 136.875 99.7344C136.297 99.4219 135.594 99.2656 134.766 99.2656C133.906 99.2656 133.195 99.4531 132.633 99.8281C132.086 100.203 131.656 100.719 131.344 101.375C131.047 102.016 130.836 102.758 130.711 103.602C130.586 104.445 130.523 105.336 130.523 106.273V107.164C130.523 108.102 130.648 108.953 130.898 109.719C131.164 110.484 131.539 111.141 132.023 111.688C132.523 112.219 133.117 112.633 133.805 112.93C134.508 113.227 135.305 113.375 136.195 113.375C137.273 113.375 138.336 113.172 139.383 112.766C140.43 112.359 141.328 111.688 142.078 110.75L145.664 115.016C145.148 115.75 144.414 116.461 143.461 117.148C142.523 117.836 141.398 118.398 140.086 118.836C138.773 119.258 137.305 119.469 135.68 119.469ZM160.266 113.375C161 113.375 161.625 113.242 162.141 112.977C162.672 112.695 163.07 112.305 163.336 111.805C163.617 111.289 163.75 110.672 163.734 109.953H171.164C171.18 111.859 170.711 113.531 169.758 114.969C168.82 116.391 167.539 117.5 165.914 118.297C164.305 119.078 162.484 119.469 160.453 119.469C158.469 119.469 156.734 119.148 155.25 118.508C153.766 117.852 152.523 116.945 151.523 115.789C150.539 114.617 149.797 113.25 149.297 111.688C148.812 110.125 148.57 108.43 148.57 106.602V106.062C148.57 104.234 148.812 102.539 149.297 100.977C149.797 99.3984 150.539 98.0312 151.523 96.875C152.523 95.7031 153.758 94.7969 155.227 94.1562C156.711 93.5 158.438 93.1719 160.406 93.1719C162.516 93.1719 164.375 93.5703 165.984 94.3672C167.609 95.1641 168.883 96.3203 169.805 97.8359C170.727 99.3516 171.18 101.188 171.164 103.344H163.734C163.75 102.578 163.633 101.891 163.383 101.281C163.133 100.672 162.742 100.188 162.211 99.8281C161.695 99.4531 161.031 99.2656 160.219 99.2656C159.406 99.2656 158.75 99.4453 158.25 99.8047C157.75 100.164 157.367 100.664 157.102 101.305C156.852 101.93 156.68 102.648 156.586 103.461C156.508 104.273 156.469 105.141 156.469 106.062V106.602C156.469 107.539 156.508 108.422 156.586 109.25C156.68 110.062 156.859 110.781 157.125 111.406C157.391 112.016 157.773 112.5 158.273 112.859C158.773 113.203 159.438 113.375 160.266 113.375ZM182.273 83V119H174.375V83H182.273ZM181.336 105.453L179.484 105.5C179.484 103.719 179.703 102.078 180.141 100.578C180.578 99.0781 181.203 97.7734 182.016 96.6641C182.828 95.5547 183.805 94.6953 184.945 94.0859C186.086 93.4766 187.352 93.1719 188.742 93.1719C189.992 93.1719 191.133 93.3516 192.164 93.7109C193.211 94.0703 194.109 94.6484 194.859 95.4453C195.625 96.2422 196.211 97.2812 196.617 98.5625C197.039 99.8438 197.25 101.406 197.25 103.25V119H189.305V103.203C189.305 102.172 189.156 101.375 188.859 100.812C188.578 100.234 188.172 99.8359 187.641 99.6172C187.109 99.3828 186.461 99.2656 185.695 99.2656C184.773 99.2656 184.023 99.4219 183.445 99.7344C182.867 100.047 182.422 100.484 182.109 101.047C181.812 101.594 181.609 102.242 181.5 102.992C181.391 103.742 181.336 104.562 181.336 105.453ZM231.539 109.93C231.539 109.398 231.461 108.922 231.305 108.5C231.148 108.062 230.859 107.656 230.438 107.281C230.016 106.906 229.406 106.531 228.609 106.156C227.828 105.766 226.797 105.359 225.516 104.938C224.016 104.438 222.57 103.875 221.18 103.25C219.789 102.609 218.547 101.867 217.453 101.023C216.359 100.164 215.492 99.1641 214.852 98.0234C214.211 96.8672 213.891 95.5234 213.891 93.9922C213.891 92.5234 214.219 91.2031 214.875 90.0312C215.531 88.8438 216.445 87.8359 217.617 87.0078C218.805 86.1641 220.195 85.5234 221.789 85.0859C223.383 84.6328 225.125 84.4062 227.016 84.4062C229.516 84.4062 231.719 84.8438 233.625 85.7188C235.547 86.5781 237.047 87.8047 238.125 89.3984C239.219 90.9766 239.766 92.8438 239.766 95H231.586C231.586 94.1406 231.406 93.3828 231.047 92.7266C230.703 92.0703 230.18 91.5547 229.477 91.1797C228.773 90.8047 227.891 90.6172 226.828 90.6172C225.797 90.6172 224.93 90.7734 224.227 91.0859C223.523 91.3984 222.992 91.8203 222.633 92.3516C222.273 92.8672 222.094 93.4375 222.094 94.0625C222.094 94.5781 222.234 95.0469 222.516 95.4688C222.812 95.875 223.227 96.2578 223.758 96.6172C224.305 96.9766 224.961 97.3203 225.727 97.6484C226.508 97.9766 227.383 98.2969 228.352 98.6094C230.164 99.1875 231.773 99.8359 233.18 100.555C234.602 101.258 235.797 102.062 236.766 102.969C237.75 103.859 238.492 104.875 238.992 106.016C239.508 107.156 239.766 108.445 239.766 109.883C239.766 111.414 239.469 112.773 238.875 113.961C238.281 115.148 237.43 116.156 236.32 116.984C235.211 117.797 233.883 118.414 232.336 118.836C230.789 119.258 229.062 119.469 227.156 119.469C225.406 119.469 223.68 119.25 221.977 118.812C220.289 118.359 218.758 117.672 217.383 116.75C216.008 115.812 214.906 114.617 214.078 113.164C213.266 111.695 212.859 109.953 212.859 107.938H221.109C221.109 108.938 221.242 109.781 221.508 110.469C221.773 111.156 222.164 111.711 222.68 112.133C223.195 112.539 223.828 112.836 224.578 113.023C225.328 113.195 226.188 113.281 227.156 113.281C228.203 113.281 229.047 113.133 229.688 112.836C230.328 112.523 230.797 112.117 231.094 111.617C231.391 111.102 231.539 110.539 231.539 109.93ZM256.992 93.6406V99.125H241.711V93.6406H256.992ZM244.922 87.3359H252.82V110.727C252.82 111.398 252.898 111.922 253.055 112.297C253.211 112.656 253.477 112.914 253.852 113.07C254.242 113.211 254.758 113.281 255.398 113.281C255.852 113.281 256.227 113.273 256.523 113.258C256.82 113.227 257.102 113.188 257.367 113.141V118.789C256.695 119.008 255.992 119.172 255.258 119.281C254.523 119.406 253.742 119.469 252.914 119.469C251.227 119.469 249.781 119.203 248.578 118.672C247.391 118.141 246.484 117.305 245.859 116.164C245.234 115.023 244.922 113.539 244.922 111.711V87.3359ZM273.305 112.625V102.172C273.305 101.453 273.203 100.836 273 100.32C272.797 99.8047 272.477 99.4062 272.039 99.125C271.602 98.8281 271.016 98.6797 270.281 98.6797C269.688 98.6797 269.18 98.7812 268.758 98.9844C268.336 99.1875 268.016 99.4922 267.797 99.8984C267.578 100.305 267.469 100.82 267.469 101.445H259.57C259.57 100.273 259.828 99.1875 260.344 98.1875C260.875 97.1719 261.625 96.2891 262.594 95.5391C263.578 94.7891 264.75 94.2109 266.109 93.8047C267.484 93.3828 269.016 93.1719 270.703 93.1719C272.719 93.1719 274.516 93.5078 276.094 94.1797C277.688 94.8516 278.945 95.8594 279.867 97.2031C280.789 98.5312 281.25 100.203 281.25 102.219V112.602C281.25 114.258 281.344 115.516 281.531 116.375C281.719 117.219 281.984 117.961 282.328 118.602V119H274.406C274.031 118.219 273.75 117.266 273.562 116.141C273.391 115 273.305 113.828 273.305 112.625ZM274.266 103.508L274.312 107.727H270.82C270.086 107.727 269.461 107.828 268.945 108.031C268.445 108.234 268.039 108.516 267.727 108.875C267.43 109.219 267.211 109.609 267.07 110.047C266.945 110.484 266.883 110.945 266.883 111.43C266.883 111.898 266.992 112.32 267.211 112.695C267.445 113.055 267.758 113.336 268.148 113.539C268.539 113.742 268.977 113.844 269.461 113.844C270.336 113.844 271.078 113.68 271.688 113.352C272.312 113.008 272.789 112.594 273.117 112.109C273.445 111.625 273.609 111.172 273.609 110.75L275.344 113.984C275.031 114.609 274.672 115.242 274.266 115.883C273.875 116.523 273.383 117.117 272.789 117.664C272.211 118.195 271.5 118.633 270.656 118.977C269.812 119.305 268.789 119.469 267.586 119.469C266.023 119.469 264.586 119.148 263.273 118.508C261.977 117.867 260.938 116.977 260.156 115.836C259.375 114.68 258.984 113.352 258.984 111.852C258.984 110.539 259.219 109.367 259.688 108.336C260.172 107.305 260.898 106.43 261.867 105.711C262.836 104.992 264.07 104.445 265.57 104.07C267.07 103.695 268.836 103.508 270.867 103.508H274.266ZM296.344 113.375C297.078 113.375 297.703 113.242 298.219 112.977C298.75 112.695 299.148 112.305 299.414 111.805C299.695 111.289 299.828 110.672 299.812 109.953H307.242C307.258 111.859 306.789 113.531 305.836 114.969C304.898 116.391 303.617 117.5 301.992 118.297C300.383 119.078 298.562 119.469 296.531 119.469C294.547 119.469 292.812 119.148 291.328 118.508C289.844 117.852 288.602 116.945 287.602 115.789C286.617 114.617 285.875 113.25 285.375 111.688C284.891 110.125 284.648 108.43 284.648 106.602V106.062C284.648 104.234 284.891 102.539 285.375 100.977C285.875 99.3984 286.617 98.0312 287.602 96.875C288.602 95.7031 289.836 94.7969 291.305 94.1562C292.789 93.5 294.516 93.1719 296.484 93.1719C298.594 93.1719 300.453 93.5703 302.062 94.3672C303.688 95.1641 304.961 96.3203 305.883 97.8359C306.805 99.3516 307.258 101.188 307.242 103.344H299.812C299.828 102.578 299.711 101.891 299.461 101.281C299.211 100.672 298.82 100.188 298.289 99.8281C297.773 99.4531 297.109 99.2656 296.297 99.2656C295.484 99.2656 294.828 99.4453 294.328 99.8047C293.828 100.164 293.445 100.664 293.18 101.305C292.93 101.93 292.758 102.648 292.664 103.461C292.586 104.273 292.547 105.141 292.547 106.062V106.602C292.547 107.539 292.586 108.422 292.664 109.25C292.758 110.062 292.938 110.781 293.203 111.406C293.469 112.016 293.852 112.5 294.352 112.859C294.852 113.203 295.516 113.375 296.344 113.375ZM318.586 82.9766V119H310.688V82.9766H318.586ZM334.805 93.6406L323.789 106.555L318.023 112.32L314.578 107.305L319.383 101.047L325.336 93.6406H334.805ZM326.344 119L319.57 107.445L325.406 103.297L335.391 119H326.344Z" fill="black"/>
<path d="M1134 0H1348C1356.28 0 1363 6.71573 1363 15V148C1363 156.284 1356.28 163 1348 163H1134V0Z" fill="url(#paint0_linear_401_318)"/>
<path fill-rule="evenodd" clip-rule="evenodd" d="M1218.75 53C1218.62 53 1218.49 53.0527 1218.4 53.1464C1218.3 53.2402 1218.25 53.3674 1218.25 53.5V109.5C1218.25 109.633 1218.3 109.76 1218.4 109.854C1218.49 109.947 1218.62 110 1218.75 110H1278.25C1278.38 110 1278.51 109.947 1278.6 109.854C1278.7 109.76 1278.75 109.633 1278.75 109.5V64C1278.75 63.8674 1278.7 63.7402 1278.6 63.6464C1278.51 63.5527 1278.38 63.5 1278.25 63.5H1248.5C1247.61 63.5 1246.77 63.1045 1246.2 62.4206L1238.34 53H1218.75ZM1214.15 48.9038C1215.37 47.6848 1217.03 47 1218.75 47H1239.75C1240.64 47 1241.48 47.3955 1242.05 48.0794L1249.91 57.5H1278.25C1279.97 57.5 1281.63 58.1848 1282.85 59.4038C1284.07 60.6228 1284.75 62.2761 1284.75 64V109.5C1284.75 111.224 1284.07 112.877 1282.85 114.096C1281.63 115.315 1279.97 116 1278.25 116H1218.75C1217.03 116 1215.37 115.315 1214.15 114.096C1212.93 112.877 1212.25 111.224 1212.25 109.5V53.5C1212.25 51.7761 1212.93 50.1228 1214.15 48.9038Z" fill="white"/>
<path fill-rule="evenodd" clip-rule="evenodd" d="M1243.97 75.5251C1245.34 76.892 1245.34 79.108 1243.97 80.4749L1237.7 86.75L1243.97 93.0251C1245.34 94.392 1245.34 96.608 1243.97 97.9749C1242.61 99.3417 1240.39 99.3417 1239.03 97.9749L1230.28 89.2249C1228.91 87.858 1228.91 85.642 1230.28 84.2751L1239.03 75.5251C1240.39 74.1583 1242.61 74.1583 1243.97 75.5251Z" fill="white"/>
<path fill-rule="evenodd" clip-rule="evenodd" d="M1252.28 97.9749C1250.91 96.608 1250.91 94.392 1252.28 93.0251L1258.55 86.75L1252.28 80.4749C1250.91 79.108 1250.91 76.892 1252.28 75.5251C1253.64 74.1583 1255.86 74.1583 1257.22 75.5251L1265.97 84.2751C1267.34 85.642 1267.34 87.858 1265.97 89.2249L1257.22 97.9749C1255.86 99.3417 1253.64 99.3417 1252.28 97.9749Z" fill="white"/>
<defs>
<linearGradient id="paint0_linear_401_318" x1="1134" y1="0" x2="1363" y2="163" gradientUnits="userSpaceOnUse">
<stop stop-color="#E111E0"/>
<stop offset="1" stop-color="#0091FB"/>
</linearGradient>
</defs>
</svg>
