<svg width="1363" height="163" viewBox="0 0 1363 163" fill="none" xmlns="http://www.w3.org/2000/svg">
<path d="M0 15C0 6.71573 6.71573 0 15 0H37V163H15C6.71573 163 0 156.284 0 148V15Z" fill="#E111E0"/>
<rect width="1097" height="163" transform="translate(37)" fill="#F0F0F0"/>
<path d="M101.906 53.9219L94.3945 51.2383V48.0859L104.602 52.375V54.6367L101.906 53.9219ZM94.3945 56.1719L101.918 53.4297L104.602 52.7852V55.0352L94.3945 59.3242V56.1719ZM116.414 43.9375V61H112.898V43.9375H116.414ZM123.211 51.2266V53.9688H115.453V51.2266H123.211ZM124.031 43.9375V46.6914H115.453V43.9375H124.031ZM132.305 58.1406V52.4922C132.305 52.0859 132.238 51.7383 132.105 51.4492C131.973 51.1523 131.766 50.9219 131.484 50.7578C131.211 50.5938 130.855 50.5117 130.418 50.5117C130.043 50.5117 129.719 50.5781 129.445 50.7109C129.172 50.8359 128.961 51.0195 128.812 51.2617C128.664 51.4961 128.59 51.7734 128.59 52.0938H125.215C125.215 51.5547 125.34 51.043 125.59 50.5586C125.84 50.0742 126.203 49.6484 126.68 49.2812C127.156 48.9062 127.723 48.6133 128.379 48.4023C129.043 48.1914 129.785 48.0859 130.605 48.0859C131.59 48.0859 132.465 48.25 133.23 48.5781C133.996 48.9062 134.598 49.3984 135.035 50.0547C135.48 50.7109 135.703 51.5312 135.703 52.5156V57.9414C135.703 58.6367 135.746 59.207 135.832 59.6523C135.918 60.0898 136.043 60.4727 136.207 60.8008V61H132.797C132.633 60.6562 132.508 60.2266 132.422 59.7109C132.344 59.1875 132.305 58.6641 132.305 58.1406ZM132.75 53.2773L132.773 55.1875H130.887C130.441 55.1875 130.055 55.2383 129.727 55.3398C129.398 55.4414 129.129 55.5859 128.918 55.7734C128.707 55.9531 128.551 56.1641 128.449 56.4062C128.355 56.6484 128.309 56.9141 128.309 57.2031C128.309 57.4922 128.375 57.7539 128.508 57.9883C128.641 58.2148 128.832 58.3945 129.082 58.5273C129.332 58.6523 129.625 58.7148 129.961 58.7148C130.469 58.7148 130.91 58.6133 131.285 58.4102C131.66 58.207 131.949 57.957 132.152 57.6602C132.363 57.3633 132.473 57.082 132.48 56.8164L133.371 58.2461C133.246 58.5664 133.074 58.8984 132.855 59.2422C132.645 59.5859 132.375 59.9102 132.047 60.2148C131.719 60.5117 131.324 60.7578 130.863 60.9531C130.402 61.1406 129.855 61.2344 129.223 61.2344C128.418 61.2344 127.688 61.0742 127.031 60.7539C126.383 60.4258 125.867 59.9766 125.484 59.4062C125.109 58.8281 124.922 58.1719 124.922 57.4375C124.922 56.7734 125.047 56.1836 125.297 55.668C125.547 55.1523 125.914 54.7188 126.398 54.3672C126.891 54.0078 127.504 53.7383 128.238 53.5586C128.973 53.3711 129.824 53.2773 130.793 53.2773H132.75ZM141.68 51.0859V61H138.305V48.3203H141.48L141.68 51.0859ZM145.5 48.2383L145.441 51.3672C145.277 51.3438 145.078 51.3242 144.844 51.3086C144.617 51.2852 144.41 51.2734 144.223 51.2734C143.746 51.2734 143.332 51.3359 142.98 51.4609C142.637 51.5781 142.348 51.7539 142.113 51.9883C141.887 52.2227 141.715 52.5078 141.598 52.8438C141.488 53.1797 141.426 53.5625 141.41 53.9922L140.73 53.7812C140.73 52.9609 140.812 52.207 140.977 51.5195C141.141 50.8242 141.379 50.2188 141.691 49.7031C142.012 49.1875 142.402 48.7891 142.863 48.5078C143.324 48.2266 143.852 48.0859 144.445 48.0859C144.633 48.0859 144.824 48.1016 145.02 48.1328C145.215 48.1562 145.375 48.1914 145.5 48.2383ZM150.469 50.9453V61H147.082V48.3203H150.258L150.469 50.9453ZM150 54.2148H149.062C149.062 53.332 149.168 52.5195 149.379 51.7773C149.598 51.0273 149.914 50.3789 150.328 49.832C150.75 49.2773 151.27 48.8477 151.887 48.543C152.504 48.2383 153.219 48.0859 154.031 48.0859C154.594 48.0859 155.109 48.1719 155.578 48.3438C156.047 48.5078 156.449 48.7695 156.785 49.1289C157.129 49.4805 157.395 49.9414 157.582 50.5117C157.77 51.0742 157.863 51.75 157.863 52.5391V61H154.488V52.9141C154.488 52.3359 154.41 51.8906 154.254 51.5781C154.098 51.2656 153.875 51.0469 153.586 50.9219C153.305 50.7969 152.965 50.7344 152.566 50.7344C152.129 50.7344 151.746 50.8242 151.418 51.0039C151.098 51.1836 150.832 51.4336 150.621 51.7539C150.41 52.0664 150.254 52.4336 150.152 52.8555C150.051 53.2773 150 53.7305 150 54.2148ZM157.547 53.8281L156.34 53.9805C156.34 53.1523 156.441 52.3828 156.645 51.6719C156.855 50.9609 157.164 50.3359 157.57 49.7969C157.984 49.2578 158.496 48.8398 159.105 48.543C159.715 48.2383 160.418 48.0859 161.215 48.0859C161.824 48.0859 162.379 48.1758 162.879 48.3555C163.379 48.5273 163.805 48.8047 164.156 49.1875C164.516 49.5625 164.789 50.0547 164.977 50.6641C165.172 51.2734 165.27 52.0195 165.27 52.9023V61H161.883V52.9023C161.883 52.3164 161.805 51.8711 161.648 51.5664C161.5 51.2539 161.281 51.0391 160.992 50.9219C160.711 50.7969 160.375 50.7344 159.984 50.7344C159.578 50.7344 159.223 50.8164 158.918 50.9805C158.613 51.1367 158.359 51.3555 158.156 51.6367C157.953 51.918 157.801 52.2461 157.699 52.6211C157.598 52.9883 157.547 53.3906 157.547 53.8281ZM173.332 61H169.617L169.641 58.2578H173.332C174.254 58.2578 175.031 58.0508 175.664 57.6367C176.297 57.2148 176.773 56.6016 177.094 55.7969C177.422 54.9922 177.586 54.0195 177.586 52.8789V52.0469C177.586 51.1719 177.492 50.4023 177.305 49.7383C177.125 49.0742 176.855 48.5156 176.496 48.0625C176.137 47.6094 175.695 47.2695 175.172 47.043C174.648 46.8086 174.047 46.6914 173.367 46.6914H169.547V43.9375H173.367C174.508 43.9375 175.551 44.1328 176.496 44.5234C177.449 44.9062 178.273 45.457 178.969 46.1758C179.664 46.8945 180.199 47.7539 180.574 48.7539C180.957 49.7461 181.148 50.8516 181.148 52.0703V52.8789C181.148 54.0898 180.957 55.1953 180.574 56.1953C180.199 57.1953 179.664 58.0547 178.969 58.7734C178.281 59.4844 177.457 60.0352 176.496 60.4258C175.543 60.8086 174.488 61 173.332 61ZM171.609 43.9375V61H168.094V43.9375H171.609ZM190.992 57.9648V48.3203H194.367V61H191.191L190.992 57.9648ZM191.367 55.3633L192.363 55.3398C192.363 56.1836 192.266 56.9688 192.07 57.6953C191.875 58.4141 191.582 59.0391 191.191 59.5703C190.801 60.0938 190.309 60.5039 189.715 60.8008C189.121 61.0898 188.422 61.2344 187.617 61.2344C187 61.2344 186.43 61.1484 185.906 60.9766C185.391 60.7969 184.945 60.5195 184.57 60.1445C184.203 59.7617 183.914 59.2734 183.703 58.6797C183.5 58.0781 183.398 57.3555 183.398 56.5117V48.3203H186.773V56.5352C186.773 56.9102 186.816 57.2266 186.902 57.4844C186.996 57.7422 187.125 57.9531 187.289 58.1172C187.453 58.2812 187.645 58.3984 187.863 58.4688C188.09 58.5391 188.34 58.5742 188.613 58.5742C189.309 58.5742 189.855 58.4336 190.254 58.1523C190.66 57.8711 190.945 57.4883 191.109 57.0039C191.281 56.5117 191.367 55.9648 191.367 55.3633ZM200.508 48.3203V61H197.121V48.3203H200.508ZM196.91 45.0156C196.91 44.5234 197.082 44.1172 197.426 43.7969C197.77 43.4766 198.23 43.3164 198.809 43.3164C199.379 43.3164 199.836 43.4766 200.18 43.7969C200.531 44.1172 200.707 44.5234 200.707 45.0156C200.707 45.5078 200.531 45.9141 200.18 46.2344C199.836 46.5547 199.379 46.7148 198.809 46.7148C198.23 46.7148 197.77 46.5547 197.426 46.2344C197.082 45.9141 196.91 45.5078 196.91 45.0156ZM206.602 51.0273V61H203.227V48.3203H206.391L206.602 51.0273ZM206.109 54.2148H205.195C205.195 53.2773 205.316 52.4336 205.559 51.6836C205.801 50.9258 206.141 50.2812 206.578 49.75C207.016 49.2109 207.535 48.8008 208.137 48.5195C208.746 48.2305 209.426 48.0859 210.176 48.0859C210.77 48.0859 211.312 48.1719 211.805 48.3438C212.297 48.5156 212.719 48.7891 213.07 49.1641C213.43 49.5391 213.703 50.0352 213.891 50.6523C214.086 51.2695 214.184 52.0234 214.184 52.9141V61H210.785V52.9023C210.785 52.3398 210.707 51.9023 210.551 51.5898C210.395 51.2773 210.164 51.0586 209.859 50.9336C209.562 50.8008 209.195 50.7344 208.758 50.7344C208.305 50.7344 207.91 50.8242 207.574 51.0039C207.246 51.1836 206.973 51.4336 206.754 51.7539C206.543 52.0664 206.383 52.4336 206.273 52.8555C206.164 53.2773 206.109 53.7305 206.109 54.2148ZM216.211 54.7891V54.543C216.211 53.6133 216.344 52.7578 216.609 51.9766C216.875 51.1875 217.262 50.5039 217.77 49.9258C218.277 49.3477 218.902 48.8984 219.645 48.5781C220.387 48.25 221.238 48.0859 222.199 48.0859C223.16 48.0859 224.016 48.25 224.766 48.5781C225.516 48.8984 226.145 49.3477 226.652 49.9258C227.168 50.5039 227.559 51.1875 227.824 51.9766C228.09 52.7578 228.223 53.6133 228.223 54.543V54.7891C228.223 55.7109 228.09 56.5664 227.824 57.3555C227.559 58.1367 227.168 58.8203 226.652 59.4062C226.145 59.9844 225.52 60.4336 224.777 60.7539C224.035 61.0742 223.184 61.2344 222.223 61.2344C221.262 61.2344 220.406 61.0742 219.656 60.7539C218.914 60.4336 218.285 59.9844 217.77 59.4062C217.262 58.8203 216.875 58.1367 216.609 57.3555C216.344 56.5664 216.211 55.7109 216.211 54.7891ZM219.586 54.543V54.7891C219.586 55.3203 219.633 55.8164 219.727 56.2773C219.82 56.7383 219.969 57.1445 220.172 57.4961C220.383 57.8398 220.656 58.1094 220.992 58.3047C221.328 58.5 221.738 58.5977 222.223 58.5977C222.691 58.5977 223.094 58.5 223.43 58.3047C223.766 58.1094 224.035 57.8398 224.238 57.4961C224.441 57.1445 224.59 56.7383 224.684 56.2773C224.785 55.8164 224.836 55.3203 224.836 54.7891V54.543C224.836 54.0273 224.785 53.543 224.684 53.0898C224.59 52.6289 224.438 52.2227 224.227 51.8711C224.023 51.5117 223.754 51.2305 223.418 51.0273C223.082 50.8242 222.676 50.7227 222.199 50.7227C221.723 50.7227 221.316 50.8242 220.98 51.0273C220.652 51.2305 220.383 51.5117 220.172 51.8711C219.969 52.2227 219.82 52.6289 219.727 53.0898C219.633 53.543 219.586 54.0273 219.586 54.543Z" fill="#888888"/>
<path d="M118.594 98.4219V104.75H101.086V98.4219H118.594ZM103.828 84.875V119H95.6016V84.875H103.828ZM124.125 84.875V119H115.922V84.875H124.125ZM127.992 106.578V106.086C127.992 104.227 128.258 102.516 128.789 100.953C129.32 99.375 130.102 98.0078 131.133 96.8516C132.164 95.6953 133.438 94.7969 134.953 94.1562C136.469 93.5 138.219 93.1719 140.203 93.1719C142.203 93.1719 143.961 93.5 145.477 94.1562C147.008 94.7969 148.289 95.6953 149.32 96.8516C150.352 98.0078 151.133 99.375 151.664 100.953C152.195 102.516 152.461 104.227 152.461 106.086V106.578C152.461 108.422 152.195 110.133 151.664 111.711C151.133 113.273 150.352 114.641 149.32 115.812C148.289 116.969 147.016 117.867 145.5 118.508C143.984 119.148 142.234 119.469 140.25 119.469C138.266 119.469 136.508 119.148 134.977 118.508C133.445 117.867 132.164 116.969 131.133 115.812C130.102 114.641 129.32 113.273 128.789 111.711C128.258 110.133 127.992 108.422 127.992 106.578ZM135.891 106.086V106.578C135.891 107.531 135.961 108.422 136.102 109.25C136.242 110.078 136.477 110.805 136.805 111.43C137.133 112.039 137.578 112.516 138.141 112.859C138.703 113.203 139.406 113.375 140.25 113.375C141.078 113.375 141.766 113.203 142.312 112.859C142.875 112.516 143.32 112.039 143.648 111.43C143.977 110.805 144.211 110.078 144.352 109.25C144.492 108.422 144.562 107.531 144.562 106.578V106.086C144.562 105.164 144.492 104.297 144.352 103.484C144.211 102.656 143.977 101.93 143.648 101.305C143.32 100.664 142.875 100.164 142.312 99.8047C141.75 99.4453 141.047 99.2656 140.203 99.2656C139.375 99.2656 138.68 99.4453 138.117 99.8047C137.57 100.164 137.133 100.664 136.805 101.305C136.477 101.93 136.242 102.656 136.102 103.484C135.961 104.297 135.891 105.164 135.891 106.086ZM163.688 111.453L168.375 93.6406H173.32L171.562 102.57L166.922 119H162.961L163.688 111.453ZM161.836 93.6406L164.742 111.312L165.07 119H160.266L154.266 93.6406H161.836ZM177.492 110.938L180.422 93.6406H187.992L182.039 119H177.234L177.492 110.938ZM173.883 93.6406L178.617 111.406L179.344 119H175.336L170.789 102.617L169.102 93.6406H173.883ZM218.297 84.875V119H210.07V84.875H218.297ZM228.562 84.875V91.2266H200.039V84.875H228.562ZM225.773 106.578V106.086C225.773 104.227 226.039 102.516 226.57 100.953C227.102 99.375 227.883 98.0078 228.914 96.8516C229.945 95.6953 231.219 94.7969 232.734 94.1562C234.25 93.5 236 93.1719 237.984 93.1719C239.984 93.1719 241.742 93.5 243.258 94.1562C244.789 94.7969 246.07 95.6953 247.102 96.8516C248.133 98.0078 248.914 99.375 249.445 100.953C249.977 102.516 250.242 104.227 250.242 106.086V106.578C250.242 108.422 249.977 110.133 249.445 111.711C248.914 113.273 248.133 114.641 247.102 115.812C246.07 116.969 244.797 117.867 243.281 118.508C241.766 119.148 240.016 119.469 238.031 119.469C236.047 119.469 234.289 119.148 232.758 118.508C231.227 117.867 229.945 116.969 228.914 115.812C227.883 114.641 227.102 113.273 226.57 111.711C226.039 110.133 225.773 108.422 225.773 106.578ZM233.672 106.086V106.578C233.672 107.531 233.742 108.422 233.883 109.25C234.023 110.078 234.258 110.805 234.586 111.43C234.914 112.039 235.359 112.516 235.922 112.859C236.484 113.203 237.188 113.375 238.031 113.375C238.859 113.375 239.547 113.203 240.094 112.859C240.656 112.516 241.102 112.039 241.43 111.43C241.758 110.805 241.992 110.078 242.133 109.25C242.273 108.422 242.344 107.531 242.344 106.578V106.086C242.344 105.164 242.273 104.297 242.133 103.484C241.992 102.656 241.758 101.93 241.43 101.305C241.102 100.664 240.656 100.164 240.094 99.8047C239.531 99.4453 238.828 99.2656 237.984 99.2656C237.156 99.2656 236.461 99.4453 235.898 99.8047C235.352 100.164 234.914 100.664 234.586 101.305C234.258 101.93 234.023 102.656 233.883 103.484C233.742 104.297 233.672 105.164 233.672 106.086ZM266.086 84.875H279.516C282.141 84.875 284.422 85.2656 286.359 86.0469C288.297 86.8281 289.789 87.9844 290.836 89.5156C291.898 91.0469 292.43 92.9375 292.43 95.1875C292.43 97.1406 292.125 98.7734 291.516 100.086C290.906 101.398 290.055 102.484 288.961 103.344C287.883 104.188 286.625 104.883 285.188 105.43L282.492 106.953H271.219L271.172 100.602H279.516C280.562 100.602 281.43 100.414 282.117 100.039C282.805 99.6641 283.32 99.1328 283.664 98.4453C284.023 97.7422 284.203 96.9062 284.203 95.9375C284.203 94.9531 284.023 94.1094 283.664 93.4062C283.305 92.7031 282.773 92.1641 282.07 91.7891C281.383 91.4141 280.531 91.2266 279.516 91.2266H274.312V119H266.086V84.875ZM284.766 119L277.219 103.906L285.938 103.859L293.578 118.648V119H284.766ZM311.836 112.836V93.6406H319.758V119H312.352L311.836 112.836ZM312.586 107.68L314.648 107.633C314.648 109.336 314.445 110.914 314.039 112.367C313.633 113.805 313.031 115.055 312.234 116.117C311.453 117.18 310.484 118.008 309.328 118.602C308.188 119.18 306.867 119.469 305.367 119.469C304.117 119.469 302.969 119.297 301.922 118.953C300.891 118.594 300 118.039 299.25 117.289C298.5 116.523 297.914 115.547 297.492 114.359C297.086 113.156 296.883 111.719 296.883 110.047V93.6406H304.781V110.094C304.781 110.656 304.852 111.141 304.992 111.547C305.133 111.953 305.336 112.297 305.602 112.578C305.867 112.844 306.195 113.047 306.586 113.188C306.992 113.312 307.453 113.375 307.969 113.375C309.156 113.375 310.086 113.125 310.758 112.625C311.43 112.125 311.898 111.445 312.164 110.586C312.445 109.727 312.586 108.758 312.586 107.68ZM331.875 99.0547V119H323.977V93.6406H331.383L331.875 99.0547ZM330.938 105.453L329.086 105.5C329.086 103.562 329.32 101.836 329.789 100.32C330.258 98.7891 330.922 97.4922 331.781 96.4297C332.641 95.3672 333.664 94.5625 334.852 94.0156C336.055 93.4531 337.391 93.1719 338.859 93.1719C340.031 93.1719 341.102 93.3438 342.07 93.6875C343.055 94.0312 343.898 94.5859 344.602 95.3516C345.32 96.1172 345.867 97.1328 346.242 98.3984C346.633 99.6484 346.828 101.195 346.828 103.039V119H338.883V103.016C338.883 102 338.742 101.227 338.461 100.695C338.18 100.148 337.773 99.7734 337.242 99.5703C336.711 99.3672 336.062 99.2656 335.297 99.2656C334.484 99.2656 333.797 99.4219 333.234 99.7344C332.672 100.047 332.219 100.484 331.875 101.047C331.547 101.594 331.305 102.242 331.148 102.992C331.008 103.742 330.938 104.562 330.938 105.453ZM363.773 108.195H357.047C357.047 106.82 357.141 105.609 357.328 104.562C357.531 103.5 357.875 102.547 358.359 101.703C358.844 100.859 359.5 100.078 360.328 99.3594C361.062 98.75 361.695 98.1641 362.227 97.6016C362.758 97.0391 363.164 96.4688 363.445 95.8906C363.727 95.3125 363.867 94.6953 363.867 94.0391C363.867 93.2266 363.75 92.5625 363.516 92.0469C363.297 91.5312 362.961 91.1484 362.508 90.8984C362.07 90.6328 361.516 90.5 360.844 90.5C360.297 90.5 359.781 90.6328 359.297 90.8984C358.828 91.1641 358.445 91.5781 358.148 92.1406C357.852 92.6875 357.688 93.4141 357.656 94.3203H349.711C349.758 91.9922 350.273 90.1016 351.258 88.6484C352.258 87.1797 353.586 86.1094 355.242 85.4375C356.914 84.75 358.781 84.4062 360.844 84.4062C363.125 84.4062 365.086 84.7578 366.727 85.4609C368.367 86.1641 369.625 87.2109 370.5 88.6016C371.375 89.9766 371.812 91.6719 371.812 93.6875C371.812 95.0312 371.555 96.2031 371.039 97.2031C370.539 98.1875 369.859 99.1094 369 99.9688C368.156 100.812 367.211 101.719 366.164 102.688C365.258 103.484 364.641 104.297 364.312 105.125C363.984 105.938 363.805 106.961 363.773 108.195ZM356.086 115.32C356.086 114.195 356.492 113.258 357.305 112.508C358.117 111.742 359.172 111.359 360.469 111.359C361.766 111.359 362.82 111.742 363.633 112.508C364.445 113.258 364.852 114.195 364.852 115.32C364.852 116.445 364.445 117.391 363.633 118.156C362.82 118.906 361.766 119.281 360.469 119.281C359.172 119.281 358.117 118.906 357.305 118.156C356.492 117.391 356.086 116.445 356.086 115.32Z" fill="black"/>
<path d="M1134 0H1348C1356.28 0 1363 6.71573 1363 15V148C1363 156.284 1356.28 163 1348 163H1134V0Z" fill="url(#paint0_linear_401_345)"/>
<path d="M1260.62 78.8078C1263.81 78.8078 1266.93 79.7552 1269.59 81.5302C1272.25 83.3052 1274.32 85.8281 1275.54 88.7798C1276.76 91.7315 1277.08 94.9795 1276.46 98.1131C1275.84 101.247 1274.3 104.125 1272.04 106.384C1269.78 108.643 1266.9 110.182 1263.77 110.805C1260.63 111.428 1257.39 111.108 1254.43 109.886C1251.48 108.663 1248.96 106.593 1247.18 103.936C1245.41 101.28 1244.46 98.1565 1244.46 94.9616C1244.46 90.6774 1246.16 86.5686 1249.19 83.5392C1252.22 80.5097 1256.33 78.8078 1260.62 78.8078V78.8078ZM1260.62 73.4232C1256.36 73.4232 1252.19 74.6864 1248.65 77.0531C1245.11 79.4198 1242.35 82.7836 1240.72 86.7192C1239.09 90.6549 1238.66 94.9855 1239.49 99.1636C1240.32 103.342 1242.37 107.179 1245.39 110.192C1248.4 113.204 1252.24 115.255 1256.41 116.086C1260.59 116.917 1264.92 116.491 1268.86 114.861C1272.79 113.23 1276.16 110.47 1278.52 106.928C1280.89 103.386 1282.15 99.2215 1282.15 94.9616C1282.15 89.2493 1279.88 83.7709 1275.85 79.7317C1271.81 75.6924 1266.33 73.4232 1260.62 73.4232Z" fill="white"/>
<path d="M1274.08 46.4999H1220.23C1218.8 46.4999 1217.43 47.0672 1216.42 48.0771C1215.41 49.0869 1214.85 50.4565 1214.85 51.8845V105.731C1214.85 107.159 1215.41 108.528 1216.42 109.538C1217.43 110.548 1218.8 111.115 1220.23 111.115H1231V105.731H1220.23V68.0383H1279.46V51.8845C1279.46 50.4565 1278.89 49.0869 1277.88 48.0771C1276.87 47.0672 1275.5 46.4999 1274.08 46.4999V46.4999ZM1220.23 62.6537V51.8845H1274.08V62.6537H1220.23Z" fill="white"/>
<path d="M1255.23 86.8848V103.039L1268.69 94.9617L1255.23 86.8848Z" fill="white"/>
<defs>
<linearGradient id="paint0_linear_401_345" x1="1134" y1="0" x2="1363" y2="163" gradientUnits="userSpaceOnUse">
<stop stop-color="#E111E0"/>
<stop offset="1" stop-color="#0091FB"/>
</linearGradient>
</defs>
</svg>
